<svg width="24" height="24" viewBox="0 0 24 24" fill="none" xmlns="http://www.w3.org/2000/svg">
<path d="M10.8975 19.1471C11.0028 19.0417 11.062 18.8987 11.062 18.7496C11.062 18.6006 11.0028 18.4576 10.8975 18.3521L5.10843 12.5621H20.25C20.3992 12.5621 20.5423 12.5029 20.6477 12.3974C20.7532 12.2919 20.8125 12.1488 20.8125 11.9996C20.8125 11.8505 20.7532 11.7074 20.6477 11.6019C20.5423 11.4964 20.3992 11.4371 20.25 11.4371H5.10843L10.8975 5.64714C10.9969 5.54051 11.0509 5.39947 11.0484 5.25375C11.0458 5.10802 10.9868 4.96898 10.8837 4.86592C10.7806 4.76286 10.6416 4.70383 10.4959 4.70126C10.3502 4.69869 10.2091 4.75278 10.1025 4.85214L3.35249 11.6021C3.24716 11.7076 3.18799 11.8506 3.18799 11.9996C3.18799 12.1487 3.24716 12.2917 3.35249 12.3971L10.1025 19.1471C10.208 19.2525 10.3509 19.3116 10.5 19.3116C10.6491 19.3116 10.792 19.2525 10.8975 19.1471Z" fill="#8C725B"/>
</svg>
