<svg width="320" height="105" viewBox="0 0 320 105" fill="none" xmlns="http://www.w3.org/2000/svg">
<path d="M39.8157 1.11492L43.5493 38.1098C43.6255 38.8953 43.2445 39.2754 42.4318 39.2754H37.5044C36.7933 39.2754 36.4123 38.9207 36.3361 38.1859L34.5074 19.3843L23.0526 38.794C22.5192 39.5795 22.4938 39.7062 21.8081 39.8075H21.7827C21.0969 39.7062 21.0207 39.5795 20.5128 38.794L9.08337 19.4097L7.22928 38.1859C7.12768 38.9714 6.7721 39.2754 6.06094 39.2754H1.13361C0.295456 39.2754 -0.0855235 38.8953 0.016071 38.1098L3.74967 1.11492C3.80046 0.481441 4.13065 0.177373 4.71481 0.177373H4.84181C5.47677 0.177373 5.60377 0.532119 5.93395 1.06424L21.7827 27.8982L37.6314 1.06424C37.9362 0.557458 38.114 0.152034 38.7236 0.177373H38.8252C39.4093 0.177373 39.7395 0.481441 39.8157 1.11492Z" fill="#E6ECF0"/>
<path d="M48.8464 30.1027C47.0685 27.0874 46.1796 23.7426 46.1796 20.0685C46.1796 16.3943 47.0685 13.0496 48.8464 9.98356C50.5989 6.94288 53.0118 4.53568 56.085 2.78729C59.1583 1.0389 62.5109 0.177373 66.1937 0.177373C69.8765 0.177373 73.2291 1.0389 76.3023 2.78729C79.3756 4.53568 81.7884 6.94288 83.5663 9.98356C85.3188 13.0496 86.2078 16.3943 86.2078 20.0685C86.2078 23.7426 85.3188 27.0874 83.5663 30.1027C81.7884 33.1434 79.3756 35.5253 76.3023 37.2483C73.2291 38.9967 69.8765 39.8582 66.1937 39.8582C62.5109 39.8582 59.1583 38.9967 56.085 37.2483C53.0118 35.5253 50.5989 33.1434 48.8464 30.1027ZM53.342 20.0685C53.342 23.6413 54.5865 26.6313 57.0756 29.0638C59.5392 31.4964 62.5871 32.7126 66.1937 32.7126C69.8003 32.7126 72.8481 31.4964 75.3372 29.0638C77.8008 26.6313 79.0454 23.6413 79.0454 20.0685C79.1978 13.0242 73.2291 7.17093 66.1937 7.29763C59.1583 7.17093 53.1896 13.0242 53.342 20.0685Z" fill="#E6ECF0"/>
<path d="M116.37 0.76017H121.856C122.669 0.76017 122.999 1.29229 122.669 2.02712L106.109 38.642C105.728 39.4275 105.246 39.8329 104.611 39.8329H104.509C103.823 39.8329 103.315 39.4275 102.985 38.642L86.4506 2.05246C86.1204 1.26695 86.476 0.76017 87.3142 0.76017H92.7241C93.359 0.76017 93.7908 1.08958 94.0702 1.72305L104.585 26.0231L115.075 1.72305C115.354 1.08958 115.786 0.76017 116.37 0.76017Z" fill="#E6ECF0"/>
<path d="M150.723 30.0014C151.358 29.5706 152.12 29.5706 152.45 30.052L155.346 34.461C155.625 34.8411 155.346 35.4999 154.812 35.9053C153.289 37.0963 151.46 38.0338 149.326 38.7687C147.168 39.5035 145.11 39.8582 143.129 39.8582C140.361 39.8582 137.719 39.3514 135.23 38.3125C132.716 37.2737 130.582 35.88 128.779 34.1316C126.976 32.3832 125.553 30.2801 124.512 27.8222C123.445 25.3643 122.912 22.7798 122.912 20.0431C122.912 17.3065 123.445 14.6966 124.512 12.2387C125.553 9.78085 126.976 7.67771 128.779 5.90398C130.582 4.15559 132.716 2.76195 135.23 1.72305C137.719 0.684153 140.361 0.177373 143.129 0.177373C145.11 0.177373 147.193 0.532119 149.377 1.26695C151.536 2.00178 153.416 2.96466 154.965 4.20627C155.574 4.66237 155.701 5.14381 155.346 5.67593L152.45 10.0342C152.146 10.5157 151.485 10.5917 150.8 10.0849C148.691 8.28585 145.796 7.29763 143.129 7.29763C136.018 7.14559 129.922 13.0749 130.074 20.0431C130.074 23.5906 131.344 26.5806 133.884 29.0385C136.424 31.4964 139.497 32.7126 143.129 32.7126C145.669 32.7126 148.615 31.6991 150.723 30.0014Z" fill="#E6ECF0"/>
<path d="M188.302 0.709492H193.788C194.372 0.709492 194.652 0.988221 194.652 1.57102V38.4392C194.652 38.9967 194.372 39.2754 193.788 39.2754H188.302C187.769 39.2754 187.489 38.9967 187.489 38.4392V27.0114H168.288V38.4392C168.288 38.9967 168.009 39.2754 167.45 39.2754H161.964C161.38 39.2754 161.1 38.9967 161.1 38.4392V1.57102C161.1 0.988221 161.38 0.709492 161.964 0.709492H167.45C167.958 0.709492 168.288 1.0389 168.288 1.57102V20.7273H187.489V1.57102C187.489 0.988221 187.769 0.709492 188.302 0.709492Z" fill="#E6ECF0"/>
<path d="M218.591 1.26695L235.075 38.0085C235.405 38.7433 235.075 39.3008 234.237 39.3008H228.776C228.192 39.3008 227.76 38.9714 227.481 38.3125L225.932 34.5624H208.203L206.654 38.2872C206.375 38.946 205.918 39.2754 205.333 39.2754H199.898C199.06 39.2754 198.704 38.7687 199.035 37.9831L215.467 1.24161C215.772 0.582797 216.229 0.25339 216.864 0.25339H217.195C217.829 0.25339 218.287 0.582797 218.591 1.26695ZM217.068 13.1003L210.718 28.4303H223.392L217.068 13.1003Z" fill="#E6ECF0"/>
<path d="M267.498 0.709492H272.959C273.543 0.709492 273.822 0.98822 273.822 1.54568V38.5659C273.822 39.3008 273.365 39.7569 272.832 39.7569H272.781C272.425 39.7569 272.248 39.6555 271.968 39.4781C271.74 39.3514 271.486 39.0474 271.206 38.8447L246.646 15.5835V38.4392C246.646 38.9967 246.366 39.2754 245.808 39.2754H240.322C239.737 39.2754 239.458 38.9967 239.458 38.4392V1.36831C239.458 0.734831 239.864 0.25339 240.398 0.25339H240.499C240.779 0.25339 241.109 0.430763 241.337 0.608136C241.439 0.709492 241.82 1.06424 241.922 1.16559L266.66 24.5281V1.54568C266.66 0.98822 266.939 0.709492 267.498 0.709492Z" fill="#E6ECF0"/>
<path d="M279.907 3.47144C279.907 2.50856 280.237 1.69771 280.923 1.01356C281.583 0.329407 282.421 0 283.412 0C284.504 0 285.393 0.430763 286.129 1.31763C286.866 2.20449 287.222 3.34475 287.222 4.68771C287.222 7.44966 286.485 9.47678 284.834 12.0107C284.529 12.4161 283.971 12.5428 283.564 12.3147L282.066 11.5292C281.659 11.3012 281.634 10.8451 282.015 10.1863C283.005 8.58992 283.513 7.55102 283.513 7.06958C283.513 6.94288 283.463 6.81619 283.386 6.63881C283.209 6.71483 283.005 6.76551 282.726 6.76551C281.126 6.76551 279.907 5.32119 279.907 3.47144Z" fill="#E6ECF0"/>
<path d="M306.158 39.8582C303.237 39.8582 300.443 39.2754 297.725 38.0592C295.008 36.8682 292.95 35.3225 291.554 33.4221C291.122 32.89 291.198 32.3325 291.782 31.7751L295.084 28.481C295.567 28.0249 296.125 28.1009 296.786 28.7091C297.954 29.9507 299.376 30.9896 301.027 31.8004C302.678 32.6113 304.304 33.0167 305.878 33.0167C310.171 33.0167 312.584 31.2683 312.584 28.253C312.584 26.986 311.949 25.9471 310.704 25.1363C309.46 24.3254 307.377 23.4132 304.456 22.425C300.57 21.1327 298.081 19.9418 295.973 18.1681C293.865 16.3943 292.9 14.0631 292.9 11.0225C292.9 7.75373 294.093 5.11848 296.481 3.14203C298.868 1.16559 302.069 0.177373 306.082 0.177373C308.266 0.177373 310.374 0.582797 312.38 1.36831C314.387 2.17915 315.936 3.24339 317.054 4.53568C317.638 5.16915 317.663 5.77729 317.13 6.41076L314.463 9.45144C313.65 10.237 313.168 10.1609 312.253 9.5528C310.552 7.95644 308.012 6.99356 305.751 6.99356C302.119 6.99356 299.935 8.64059 299.935 11.0985C300.062 12.8722 301.129 14.0378 303.288 15.0767C304.05 15.4568 304.786 15.7862 305.472 16.0396C306.158 16.3183 307.047 16.6224 308.088 16.9771C310.12 17.6106 311.39 18.0667 313.142 18.8522C314.895 19.6631 316.012 20.3979 317.257 21.5128C319.009 23.1345 319.924 25.2123 320 28.1516C320 31.6991 318.73 34.537 316.165 36.6655C313.6 38.794 310.247 39.8582 306.158 39.8582Z" fill="#E6ECF0"/>
<path d="M86.1285 84.8024H98.7009C99.2088 84.8024 99.539 85.1318 99.539 85.6639V100.132C99.539 100.665 99.3358 101.095 98.9295 101.374C97.4309 102.413 95.4752 103.275 93.1132 103.959C90.7257 104.643 88.4652 104.998 86.3063 104.998C82.5981 104.998 79.1947 104.136 76.0961 102.388C72.9975 100.639 70.5592 98.2574 68.7813 95.2167C66.978 92.176 66.089 88.8313 66.089 85.1571C66.089 82.3952 66.6224 79.8106 67.6638 77.3527C68.7051 74.8949 70.1274 72.7917 71.9307 71.0433C73.734 69.2949 75.8675 67.9013 78.382 66.8624C80.871 65.8235 83.5125 65.3167 86.2809 65.3167C88.3382 65.3167 90.4717 65.6461 92.6306 66.3303C94.7895 67.0144 96.6436 67.9773 98.1421 69.2443C98.6247 69.6497 98.7263 70.3085 98.3961 70.7899L95.6022 75.0216C95.2213 75.5537 94.5609 75.6043 94.0529 75.1736C91.9194 73.3238 88.9224 72.4116 86.3063 72.4116C82.6743 72.4116 79.5757 73.6532 77.0612 76.1111C74.5468 78.569 73.2768 81.5843 73.2768 85.1571C73.2768 89.9209 75.5881 94.1018 79.6011 96.433C81.6076 97.5986 83.8427 98.1814 86.3063 98.1814C87.2969 98.1814 88.4398 98.004 89.7098 97.6239C90.9543 97.2438 91.9702 96.7877 92.7068 96.2556V90.7824H86.1285C85.5952 90.7824 85.3158 90.5037 85.3158 89.9462V85.6639C85.3158 85.0811 85.5952 84.8024 86.1285 84.8024Z" fill="#E6ECF0"/>
<path d="M130.184 93.0122L135.365 103.097C135.746 103.832 135.441 104.415 134.629 104.415H129.041C128.558 104.415 128.025 104.009 127.746 103.477L123.758 95.3181C122.945 95.4448 122.056 95.4954 121.117 95.4954H113.141V103.3C113.141 103.984 112.659 104.415 111.973 104.415H107.097C106.411 104.415 105.954 103.984 105.954 103.3V66.9891C105.954 66.3556 106.411 65.8995 107.097 65.8995H121.117C125.638 65.8995 129.371 67.2932 132.317 70.1058C135.238 72.9184 136.711 76.4912 136.711 80.8242C136.711 85.9933 134.273 90.377 130.184 93.0122ZM113.141 89.5154H120.659C123.25 89.5154 125.384 88.7046 127.06 87.0576C128.711 85.4359 129.549 83.3327 129.549 80.7735C129.549 78.2903 128.711 76.2378 127.009 74.5908C125.307 72.9691 123.199 72.1582 120.659 72.1582H113.141V89.5154Z" fill="#E6ECF0"/>
<path d="M143.304 95.2421C141.526 92.2267 140.637 88.882 140.637 85.2078C140.637 81.5337 141.526 78.1889 143.304 75.1229C145.056 72.0822 147.469 69.675 150.542 67.9266C153.616 66.1782 156.968 65.3167 160.651 65.3167C164.334 65.3167 167.687 66.1782 170.76 67.9266C173.833 69.675 176.246 72.0822 178.024 75.1229C179.776 78.1889 180.665 81.5337 180.665 85.2078C180.665 88.882 179.776 92.2267 178.024 95.2421C176.246 98.2827 173.833 100.665 170.76 102.388C167.687 104.136 164.334 104.998 160.651 104.998C156.968 104.998 153.616 104.136 150.542 102.388C147.469 100.665 145.056 98.2827 143.304 95.2421ZM147.799 85.2078C147.799 88.7806 149.044 91.7706 151.533 94.2032C153.997 96.6357 157.045 97.852 160.651 97.852C164.258 97.852 167.306 96.6357 169.795 94.2032C172.258 91.7706 173.503 88.7806 173.503 85.2078C173.655 78.1636 167.687 72.3103 160.651 72.437C153.616 72.3103 147.647 78.1636 147.799 85.2078Z" fill="#E6ECF0"/>
<path d="M192.464 66.7357V88.6286C192.464 91.3399 193.328 93.5697 195.03 95.3434C196.731 97.1171 198.916 98.004 201.557 98.004C204.173 98.004 206.357 97.1171 208.085 95.3434C209.786 93.5697 210.65 91.3399 210.65 88.6286V66.7357C210.65 66.1529 210.955 65.8488 211.564 65.8488H216.872C217.507 65.8488 217.812 66.1529 217.812 66.7357V88.6539C217.965 98.156 210.98 105.15 201.557 104.998C196.757 104.998 192.845 103.477 189.823 100.411C186.801 97.3452 185.302 93.3923 185.302 88.5526V66.7357C185.302 66.1529 185.581 65.8488 186.14 65.8488H191.626C192.185 65.8488 192.464 66.1529 192.464 66.7357Z" fill="#E6ECF0"/>
<path d="M237.079 65.8995C246.781 65.7475 254.223 72.4623 254.07 81.1536C254.223 89.8955 246.781 96.3823 237.079 96.2556H231.999V103.3C231.999 103.984 231.542 104.415 230.831 104.415H225.954C225.243 104.415 224.811 103.984 224.811 103.3V67.0144C224.811 66.3303 225.268 65.8995 225.954 65.8995H237.079ZM231.999 89.9716H236.596C239.618 89.9716 242.082 89.1354 244.012 87.4883C245.943 85.8413 246.908 83.7128 246.908 81.1029C246.908 78.5183 245.943 76.3899 244.012 74.6921C242.057 73.0198 239.593 72.1836 236.596 72.1836H231.999V89.9716Z" fill="#E6ECF0"/>
</svg>
