<svg width="24" height="24" viewBox="0 0 24 24" fill="none" fill="#1B3050" xmlns="http://www.w3.org/2000/svg">
<path d="M13.1025 19.1471C12.9972 19.0417 12.938 18.8987 12.938 18.7496C12.938 18.6006 12.9972 18.4576 13.1025 18.3521L18.8916 12.5621H3.75001C3.60082 12.5621 3.45775 12.5029 3.35226 12.3974C3.24677 12.2919 3.18751 12.1488 3.18751 11.9996C3.18751 11.8505 3.24677 11.7074 3.35226 11.6019C3.45775 11.4964 3.60082 11.4371 3.75001 11.4371H18.8916L13.1025 5.64714C13.0031 5.54051 12.9491 5.39947 12.9516 5.25375C12.9542 5.10802 13.0132 4.96898 13.1163 4.86592C13.2194 4.76286 13.3584 4.70383 13.5041 4.70126C13.6498 4.69869 13.7909 4.75278 13.8975 4.85214L20.6475 11.6021C20.7528 11.7076 20.812 11.8506 20.812 11.9996C20.812 12.1487 20.7528 12.2917 20.6475 12.3971L13.8975 19.1471C13.792 19.2525 13.6491 19.3116 13.5 19.3116C13.3509 19.3116 13.208 19.2525 13.1025 19.1471Z" />
</svg>
