<svg width="24" height="25" viewBox="0 0 24 25" fill="none" xmlns="http://www.w3.org/2000/svg">
<path d="M17.8359 16.7698C17.6868 16.7697 17.5439 16.7105 17.4385 16.605C17.3331 16.4996 17.2739 16.3567 17.2738 16.2077L17.2731 8.02002L6.5664 18.7267C6.46091 18.8322 6.31783 18.8915 6.16865 18.8915C6.01946 18.8915 5.87639 18.8322 5.7709 18.7267C5.66541 18.6212 5.60615 18.4782 5.60615 18.329C5.60615 18.1798 5.66541 18.0367 5.7709 17.9312L16.4776 7.22452L8.28997 7.22386C8.14431 7.21872 8.00633 7.15724 7.90511 7.05238C7.80388 6.94752 7.74731 6.80746 7.74731 6.66171C7.74731 6.51596 7.80388 6.3759 7.90511 6.27104C8.00633 6.16618 8.14431 6.1047 8.28997 6.09956L17.8359 6.09956C17.985 6.09965 18.1279 6.15891 18.2333 6.26431C18.3387 6.36972 18.398 6.51265 18.3981 6.66171L18.3981 16.2077C18.398 16.3567 18.3387 16.4996 18.2333 16.605C18.1279 16.7105 17.985 16.7697 17.8359 16.7698Z" fill="#8C725B"/>
</svg>
