<svg width="24" height="24" viewBox="0 0 24 24" fill="none" xmlns="http://www.w3.org/2000/svg">
<path d="M10.898 4.85249C11.0033 4.95796 11.0625 5.10093 11.0625 5.24999C11.0625 5.39906 11.0033 5.54202 10.898 5.64749L5.10892 11.4375L20.2505 11.4375C20.3997 11.4375 20.5427 11.4968 20.6482 11.6022C20.7537 11.7077 20.813 11.8508 20.813 12C20.813 12.1492 20.7537 12.2923 20.6482 12.3977C20.5427 12.5032 20.3997 12.5625 20.2505 12.5625L5.10892 12.5625L10.898 18.3525C10.9973 18.4591 11.0514 18.6002 11.0489 18.7459C11.0463 18.8916 10.9873 19.0306 10.8842 19.1337C10.7811 19.2368 10.6421 19.2958 10.4964 19.2984C10.3506 19.3009 10.2096 19.2469 10.103 19.1475L3.35298 12.3975C3.24764 12.292 3.18848 12.1491 3.18848 12C3.18848 11.8509 3.24764 11.708 3.35298 11.6025L10.103 4.85249C10.2085 4.74715 10.3514 4.68799 10.5005 4.68799C10.6495 4.68799 10.7925 4.74715 10.898 4.85249Z" fill="white"/>
</svg>
