<svg width="24" height="24" viewBox="0 0 24 24" fill="none" xmlns="http://www.w3.org/2000/svg">
<path d="M17.446 11.554L9.94597 4.05403C9.83934 3.95467 9.6983 3.90058 9.55258 3.90315C9.40685 3.90572 9.26781 3.96475 9.16475 4.06781C9.06169 4.17087 9.00266 4.30991 9.00009 4.45564C8.99752 4.60137 9.05161 4.7424 9.15097 4.84903L16.2525 11.9515L9.15097 19.054C9.05161 19.1607 8.99752 19.3017 9.00009 19.4474C9.00266 19.5931 9.06169 19.7322 9.16475 19.8352C9.26781 19.9383 9.40685 19.9973 9.55258 19.9999C9.6983 20.0025 9.83934 19.9484 9.94597 19.849L17.446 12.349C17.5513 12.2436 17.6105 12.1006 17.6105 11.9515C17.6105 11.8025 17.5513 11.6595 17.446 11.554Z" fill="#182B49"/>
</svg>
