<svg width="20" height="20" viewBox="0 0 20 20" fill="none" xmlns="http://www.w3.org/2000/svg">
<path d="M10.2973 13.6306L15.2973 8.63065C15.3635 8.55956 15.3996 8.46554 15.3979 8.36839C15.3961 8.27123 15.3568 8.17854 15.2881 8.10984C15.2194 8.04113 15.1267 8.00177 15.0295 8.00006C14.9324 7.99834 14.8384 8.03441 14.7673 8.10065L10.0323 12.835L5.29727 8.10065C5.22618 8.03441 5.13216 7.99834 5.03501 8.00006C4.93786 8.00177 4.84517 8.04113 4.77646 8.10984C4.70775 8.17854 4.6684 8.27123 4.66668 8.36839C4.66497 8.46554 4.70103 8.55956 4.76727 8.63065L9.76727 13.6306C9.83758 13.7009 9.9329 13.7403 10.0323 13.7403C10.1316 13.7403 10.227 13.7009 10.2973 13.6306Z" fill="black"/>
</svg>
