<svg width="40" height="40" viewBox="0 0 40 40" fill="none" xmlns="http://www.w3.org/2000/svg">
<path d="M19.4536 17.9988L17.0899 22.8473L11.7566 23.6352C11.5142 23.6958 11.3324 23.817 11.2718 24.0595C11.2111 24.3019 11.2718 24.5443 11.4536 24.6655L15.3324 28.4231L14.4233 33.7564C14.3627 33.9988 14.4839 34.2413 14.6657 34.3625C14.7869 34.4231 14.9081 34.4837 15.0293 34.4837C15.1505 34.4837 15.2111 34.4837 15.3324 34.4231L20.1202 31.9382L24.9081 34.4231C25.0899 34.5443 25.3324 34.4837 25.5748 34.3625C25.7566 34.2413 25.8778 33.9988 25.8172 33.7564L24.9081 28.4231L28.7869 24.6655C28.9687 24.4837 29.0293 24.2413 28.9687 24.0595C28.9081 23.817 28.7263 23.6958 28.4839 23.6352L23.1505 22.8473L20.7869 17.9988C20.3627 17.5746 19.6354 17.5746 19.4536 17.9988ZM21.999 23.6352C22.0596 23.817 22.2414 23.9382 22.4839 23.9382L26.9081 24.6049L23.6354 27.7564C23.5142 27.8776 23.4536 28.1201 23.4536 28.3019L24.1808 32.7261L20.2414 30.6655C20.1808 30.6049 20.0596 30.6049 19.9384 30.6049C19.8172 30.6049 19.7566 30.6049 19.6354 30.6655L15.7566 32.6655L16.4839 28.2413C16.5445 28.0595 16.4233 27.817 16.3021 27.6958L13.0899 24.5443L17.5142 23.8776C17.696 23.8776 17.8778 23.6958 17.999 23.5746L19.999 19.5746L21.999 23.6352Z" fill="#00B0B5"/>
<path d="M34.5441 0.908499C34.4229 0.726681 34.2411 0.605469 34.0593 0.605469C12.0593 0.605469 15.5138 0.605469 5.93806 0.605469C5.75624 0.605469 5.57443 0.726681 5.45321 0.908499C5.332 1.09032 5.332 1.33274 5.45321 1.51456L12.6653 14.9085C9.02897 17.2721 6.66534 21.3933 6.66534 26.06C6.60473 33.3933 12.6047 39.3933 19.9987 39.3933C27.3926 39.3933 33.3926 33.3933 33.3926 25.9994C33.3926 21.3327 30.9684 17.2115 27.3926 14.8479L34.5441 1.51456C34.6653 1.33274 34.6653 1.09032 34.5441 0.908499ZM25.6956 1.81759L19.9987 12.06L14.3017 1.81759H25.6956ZM6.96837 1.81759H12.9078L18.9684 12.7267C17.0896 12.8479 15.2714 13.3933 13.6956 14.2418L6.96837 1.81759ZM32.1805 25.9994C32.1805 32.7267 26.7259 38.1812 19.9987 38.1812C13.2714 38.1812 7.81685 32.7267 7.81685 25.9994C7.81685 19.3327 13.2714 13.8782 19.9987 13.8782C26.7259 13.8782 32.1805 19.3327 32.1805 25.9994ZM26.3017 14.2418C24.7259 13.3933 22.9078 12.8479 21.029 12.7267L27.0896 1.81759H33.029L26.3017 14.2418Z" fill="#00B0B5"/>
</svg>
