<svg width="121" height="289" viewBox="0 0 121 289" fill="none" xmlns="http://www.w3.org/2000/svg">
<path d="M166.761 285.735L115.508 241.016L166.761 226.642" stroke="#2E4465" stroke-opacity="0.2" stroke-width="0.2" stroke-miterlimit="10"/>
<path d="M166.761 187.64L115.508 241.014L166.761 163.764L117.01 197.608L115.508 241.014" stroke="#2E4465" stroke-opacity="0.2" stroke-width="0.2" stroke-miterlimit="10"/>
<path d="M81.614 200.083L117.01 197.608L110.212 222.659L81.614 200.083Z" stroke="#2E4465" stroke-opacity="0.2" stroke-width="0.2" stroke-miterlimit="10"/>
<path d="M129.691 285.735L115.508 241.015L104.409 285.735L115.508 241.015L110.212 222.659L49.1677 258.487L81.6141 200.083L38.3199 241.015L16.2495 245.853L30.9697 256.188L38.3199 241.015" stroke="#2E4465" stroke-opacity="0.2" stroke-width="0.2" stroke-miterlimit="10"/>
<path d="M110.212 222.659L104.409 285.735L49.1677 258.487L86.5879 285.735" stroke="#2E4465" stroke-opacity="0.2" stroke-width="0.2" stroke-miterlimit="10"/>
<path d="M166.761 139.225L146.684 133.336V109.287L166.761 139.225ZM166.761 139.225L99.312 157.384L146.684 133.336" stroke="#2E4465" stroke-opacity="0.2" stroke-width="0.2" stroke-miterlimit="10"/>
<path d="M146.684 109.287L152.902 55.3008L107.725 91.6185L146.684 109.287ZM146.684 109.287L166.761 91.6185L152.902 55.3008" stroke="#2E4465" stroke-opacity="0.2" stroke-width="0.2" stroke-miterlimit="10"/>
<path d="M146.684 133.336L107.725 91.6182L99.312 157.384L81.614 200.083L104.409 285.734" stroke="#2E4465" stroke-opacity="0.2" stroke-width="0.2" stroke-miterlimit="10"/>
<path d="M107.725 91.6184L92.8046 93.5821L49.1677 148.55L107.725 91.6184ZM107.725 91.6184L124.718 45.9755L81.6141 36.101L119.642 15.8633L124.718 45.9755" stroke="#2E4465" stroke-opacity="0.2" stroke-width="0.2" stroke-miterlimit="10"/>
<path d="M99.3121 157.384L49.1677 148.55L81.6141 200.082" stroke="#2E4465" stroke-opacity="0.2" stroke-width="0.2" stroke-miterlimit="10"/>
<path d="M49.1677 210.133V148.55L117.01 197.608L99.3121 157.384L166.761 163.764" stroke="#2E4465" stroke-opacity="0.2" stroke-width="0.2" stroke-miterlimit="10"/>
<path d="M38.3202 241.016L8.38159 214.807L49.168 210.135" stroke="#2E4465" stroke-opacity="0.2" stroke-width="0.2" stroke-miterlimit="10"/>
<path d="M81.614 200.083L49.1676 210.134L38.3198 241.015L49.1676 258.487L30.9696 256.188L1 262.413L16.2495 245.854L8.38122 214.806L49.1676 199.2" stroke="#2E4465" stroke-opacity="0.2" stroke-width="0.2" stroke-miterlimit="10"/>
<path d="M92.8045 93.5827L81.614 36.1016L107.725 91.619" stroke="#2E4465" stroke-opacity="0.2" stroke-width="0.2" stroke-miterlimit="10"/>
<path d="M119.642 15.8634L146.684 22.9086L137.243 -21.9688L119.642 15.8634ZM119.642 15.8634L139.469 -11.386L166.761 19.9644L146.684 22.9086L123.054 36.1011H81.614" stroke="#2E4465" stroke-opacity="0.2" stroke-width="0.2" stroke-miterlimit="10"/>
<path d="M99.312 157.384L129.691 188.982L115.508 241.014" stroke="#2E4465" stroke-opacity="0.2" stroke-width="0.2" stroke-miterlimit="10"/>
<path d="M50.5358 199.2C50.5358 200.094 49.9231 200.82 49.1678 200.82C48.4125 200.82 47.7998 200.095 47.7998 199.2C47.7998 198.306 48.4125 197.58 49.1678 197.58C49.9231 197.58 50.5358 198.305 50.5358 199.2Z" fill="#E3E8ED"/>
<path d="M50.5358 199.2C50.5549 198.334 49.8988 197.557 49.1677 197.58C48.4367 197.557 47.7806 198.334 47.7997 199.2C47.7806 200.065 48.4367 200.842 49.1677 200.819C49.8988 200.842 50.5549 200.065 50.5358 199.2Z" stroke="#2E4465" stroke-opacity="0.2" stroke-width="0.2" stroke-miterlimit="10"/>
<path d="M49.8061 199.198C49.8061 199.615 49.5203 199.954 49.1674 199.954C48.8146 199.954 48.5288 199.615 48.5288 199.198C48.5288 198.78 48.8146 198.441 49.1674 198.441C49.5197 198.441 49.8061 198.78 49.8061 199.198Z" fill="#E3E8ED"/>
<path d="M49.8055 199.197C49.8146 198.793 49.5085 198.43 49.1669 198.441C48.8253 198.43 48.5193 198.792 48.5283 199.197C48.5193 199.601 48.8253 199.964 49.1669 199.953C49.5079 199.964 49.8146 199.601 49.8055 199.197Z" stroke="#2E4465" stroke-opacity="0.2" stroke-width="0.2" stroke-miterlimit="10"/>
<path d="M91.8315 234.341C91.8315 235.235 91.2194 235.961 90.4635 235.961C89.7082 235.961 89.0955 235.235 89.0955 234.341C89.0955 233.446 89.7076 232.721 90.4635 232.721C91.2188 232.721 91.8315 233.446 91.8315 234.341Z" fill="#E3E8ED"/>
<path d="M91.8314 234.342C91.8506 233.476 91.1945 232.699 90.4634 232.722C89.7323 232.699 89.0762 233.476 89.0954 234.342C89.0762 235.208 89.7323 235.985 90.4634 235.962C91.1945 235.985 91.8506 235.208 91.8314 234.342Z" stroke="#2E4465" stroke-opacity="0.2" stroke-width="0.2" stroke-miterlimit="10"/>
<path d="M91.1015 234.338C91.1015 234.756 90.8157 235.095 90.4629 235.095C90.11 235.095 89.8242 234.756 89.8242 234.338C89.8242 233.92 90.11 233.582 90.4629 233.582C90.8157 233.582 91.1015 233.92 91.1015 234.338Z" fill="#E3E8ED"/>
<path d="M91.1017 234.338C91.1107 233.933 90.8046 233.571 90.4631 233.581C90.122 233.571 89.8154 233.933 89.8244 234.338C89.8154 234.742 90.1215 235.104 90.4631 235.094C90.8046 235.104 91.1107 234.742 91.1017 234.338Z" stroke="#2E4465" stroke-opacity="0.2" stroke-width="0.2" stroke-miterlimit="10"/>
<path d="M110.212 224.279C110.968 224.279 111.58 223.554 111.58 222.659C111.58 221.764 110.968 221.039 110.212 221.039C109.456 221.039 108.844 221.764 108.844 222.659C108.844 223.554 109.456 224.279 110.212 224.279Z" fill="#E3E8ED"/>
<path d="M111.579 222.659C111.599 221.794 110.943 221.017 110.211 221.04C109.48 221.017 108.824 221.794 108.843 222.659C108.824 223.525 109.48 224.302 110.211 224.279C110.943 224.302 111.599 223.525 111.579 222.659Z" stroke="#2E4465" stroke-opacity="0.2" stroke-width="0.2" stroke-miterlimit="10"/>
<path d="M110.212 223.416C110.565 223.416 110.851 223.077 110.851 222.66C110.851 222.242 110.565 221.903 110.212 221.903C109.859 221.903 109.573 222.242 109.573 222.66C109.573 223.077 109.859 223.416 110.212 223.416Z" fill="#E3E8ED"/>
<path d="M110.85 222.66C110.859 222.256 110.553 221.893 110.212 221.904C109.87 221.893 109.564 222.255 109.573 222.66C109.564 223.064 109.87 223.427 110.212 223.416C110.553 223.427 110.86 223.064 110.85 222.66Z" stroke="#2E4465" stroke-opacity="0.2" stroke-width="0.2" stroke-miterlimit="10"/>
<path d="M94.0317 93.5809C94.0317 94.4753 93.4196 95.2008 92.6637 95.2008C91.9084 95.2008 91.2957 94.4753 91.2957 93.5809C91.2957 92.6865 91.9084 91.9609 92.6637 91.9609C93.419 91.9609 94.0317 92.6858 94.0317 93.5809Z" fill="#E3E8ED"/>
<path d="M94.0316 93.5804C94.0508 92.7147 93.3947 91.9378 92.6636 91.9604C91.9325 91.9378 91.2764 92.7147 91.2956 93.5804C91.2764 94.4461 91.9325 95.223 92.6636 95.2003C93.3947 95.223 94.0508 94.4461 94.0316 93.5804Z" stroke="#2E4465" stroke-opacity="0.2" stroke-width="0.2" stroke-miterlimit="10"/>
<path d="M93.3017 93.5824C93.3017 94.0002 93.0159 94.3387 92.663 94.3387C92.3102 94.3387 92.0244 94.0002 92.0244 93.5824C92.0244 93.1646 92.3102 92.8262 92.663 92.8262C93.0159 92.8262 93.3017 93.1646 93.3017 93.5824Z" fill="#E3E8ED"/>
<path d="M93.3019 93.5836C93.3109 93.1791 93.0048 92.8167 92.6632 92.8274C92.3217 92.8167 92.0156 93.1791 92.0246 93.5836C92.0156 93.9881 92.3217 94.3505 92.6632 94.3399C93.0048 94.3505 93.3109 93.9874 93.3019 93.5836Z" stroke="#2E4465" stroke-opacity="0.2" stroke-width="0.2" stroke-miterlimit="10"/>
<path d="M49.1677 150.65C50.1468 150.65 50.9405 149.71 50.9405 148.55C50.9405 147.391 50.1468 146.451 49.1677 146.451C48.1887 146.451 47.395 147.391 47.395 148.55C47.395 149.71 48.1887 150.65 49.1677 150.65Z" fill="#E3E8ED"/>
<path d="M50.94 148.549C50.9417 147.999 50.7506 147.453 50.4209 147.065C50.0934 146.674 49.6323 146.448 49.1673 146.45C48.7023 146.448 48.2412 146.674 47.9137 147.065C47.5839 147.453 47.3929 147.999 47.3945 148.549C47.3929 149.1 47.5839 149.646 47.9137 150.033C48.2412 150.424 48.7023 150.65 49.1673 150.648C49.6323 150.65 50.0934 150.424 50.4209 150.033C50.7506 149.645 50.9417 149.099 50.94 148.549Z" stroke="#2E4465" stroke-opacity="0.2" stroke-width="0.2" stroke-miterlimit="10"/>
<path d="M49.995 148.551C49.995 149.092 49.6247 149.531 49.1675 149.531C48.7104 149.531 48.3401 149.092 48.3401 148.551C48.3401 148.01 48.7104 147.571 49.1675 147.571C49.6247 147.571 49.995 148.01 49.995 148.551Z" fill="#E3E8ED"/>
<path d="M49.995 148.552C50.0069 148.028 49.61 147.559 49.1676 147.573C48.7251 147.559 48.3283 148.028 48.3401 148.552C48.3283 149.076 48.7251 149.546 49.1676 149.532C49.6095 149.546 50.0063 149.076 49.995 148.552Z" stroke="#2E4465" stroke-opacity="0.2" stroke-width="0.2" stroke-miterlimit="10"/>
<path d="M83.3865 36.1011C83.3865 37.2605 82.5929 38.2003 81.6138 38.2003C80.6347 38.2003 79.8411 37.2605 79.8411 36.1011C79.8411 34.9417 80.6347 34.002 81.6138 34.002C82.5929 34.002 83.3865 34.9417 83.3865 36.1011Z" fill="#E3E8ED"/>
<path d="M83.3865 36.1012C83.3882 35.5505 83.1971 35.0045 82.8673 34.6167C82.5398 34.2262 82.0788 34 81.6143 34.002C81.1493 34 80.6882 34.2262 80.3607 34.6167C80.031 35.0045 79.8399 35.5505 79.8416 36.1012C79.8399 36.6518 80.031 37.1978 80.3607 37.5849C80.6882 37.9754 81.1493 38.2017 81.6143 38.1997C82.0793 38.2017 82.5398 37.9754 82.8673 37.5849C83.1971 37.1978 83.3876 36.6518 83.3865 36.1012Z" stroke="#2E4465" stroke-opacity="0.2" stroke-width="0.2" stroke-miterlimit="10"/>
<path d="M82.4416 36.1009C82.4416 36.6423 82.0712 37.0808 81.6141 37.0808C81.157 37.0808 80.7866 36.6423 80.7866 36.1009C80.7866 35.5596 81.157 35.1211 81.6141 35.1211C82.0712 35.1211 82.4416 35.5596 82.4416 36.1009Z" fill="#E3E8ED"/>
<path d="M82.4418 36.1003C82.4536 35.5763 82.0568 35.1064 81.6144 35.1204C81.1719 35.1064 80.775 35.5763 80.7869 36.1003C80.775 36.6242 81.1719 37.0941 81.6144 37.0801C82.0568 37.0941 82.4536 36.6242 82.4418 36.1003Z" stroke="#2E4465" stroke-opacity="0.2" stroke-width="0.2" stroke-miterlimit="10"/>
<path d="M106.037 285.735C106.037 286.986 105.181 288 104.125 288C103.068 288 102.212 286.986 102.212 285.735C102.212 284.485 103.068 283.471 104.125 283.471C105.181 283.471 106.037 284.485 106.037 285.735Z" fill="#E3E8ED"/>
<path d="M106.037 285.735C106.039 285.141 105.833 284.553 105.477 284.134C105.124 283.712 104.626 283.469 104.125 283.471C103.623 283.469 103.126 283.712 102.772 284.134C102.417 284.553 102.21 285.141 102.212 285.735C102.21 286.329 102.416 286.918 102.772 287.337C103.126 287.758 103.623 288.002 104.125 288C104.626 288.002 105.124 287.759 105.477 287.337C105.833 286.918 106.039 286.329 106.037 285.735Z" stroke="#2E4465" stroke-opacity="0.2" stroke-width="0.2" stroke-miterlimit="10"/>
<path d="M104.125 286.792C104.618 286.792 105.018 286.319 105.018 285.735C105.018 285.151 104.618 284.678 104.125 284.678C103.632 284.678 103.232 285.151 103.232 285.735C103.232 286.319 103.632 286.792 104.125 286.792Z" fill="#E3E8ED"/>
<path d="M105.018 285.733C105.031 285.168 104.603 284.661 104.125 284.676C103.648 284.661 103.22 285.168 103.232 285.733C103.22 286.299 103.648 286.805 104.125 286.791C104.602 286.805 105.031 286.299 105.018 285.733Z" stroke="#2E4465" stroke-opacity="0.2" stroke-width="0.2" stroke-miterlimit="10"/>
<path d="M119.101 197.484C119.101 198.948 118.099 200.135 116.862 200.135C115.626 200.135 114.623 198.948 114.623 197.484C114.623 196.02 115.625 194.833 116.862 194.833C118.099 194.833 119.101 196.02 119.101 197.484Z" fill="#E3E8ED"/>
<path d="M119.101 197.486C119.103 196.79 118.862 196.1 118.445 195.611C118.031 195.118 117.449 194.832 116.862 194.835C116.275 194.832 115.693 195.118 115.28 195.611C114.863 196.101 114.622 196.791 114.624 197.486C114.622 198.181 114.863 198.87 115.28 199.36C115.693 199.853 116.276 200.139 116.862 200.136C117.449 200.139 118.031 199.853 118.445 199.36C118.862 198.87 119.103 198.18 119.101 197.486Z" stroke="#2E4465" stroke-opacity="0.2" stroke-width="0.2" stroke-miterlimit="10"/>
<path d="M117.908 197.482C117.908 198.165 117.44 198.719 116.863 198.719C116.286 198.719 115.818 198.165 115.818 197.482C115.818 196.798 116.286 196.244 116.863 196.244C117.44 196.244 117.908 196.798 117.908 197.482Z" fill="#E3E8ED"/>
<path d="M117.908 197.481C117.923 196.82 117.422 196.226 116.863 196.244C116.305 196.226 115.804 196.82 115.818 197.481C115.804 198.142 116.305 198.736 116.863 198.719C117.422 198.736 117.923 198.142 117.908 197.481Z" stroke="#2E4465" stroke-opacity="0.2" stroke-width="0.2" stroke-miterlimit="10"/>
<path d="M51.3899 258.84C51.3899 260.303 50.3877 261.49 49.151 261.49C47.9149 261.49 46.9121 260.303 46.9121 258.84C46.9121 257.375 47.9143 256.188 49.151 256.188C50.3877 256.188 51.3899 257.375 51.3899 258.84Z" fill="#E3E8ED"/>
<path d="M51.3898 258.84C51.3914 258.144 51.1508 257.455 50.7342 256.966C50.3205 256.472 49.7382 256.187 49.1514 256.189C48.5641 256.187 47.9824 256.472 47.5686 256.966C47.1521 257.456 46.9108 258.145 46.9131 258.84C46.9108 259.535 47.1521 260.225 47.5686 260.714C47.9824 261.208 48.5647 261.493 49.1514 261.491C49.7388 261.493 50.321 261.208 50.7342 260.714C51.1508 260.224 51.3914 259.535 51.3898 258.84Z" stroke="#2E4465" stroke-opacity="0.2" stroke-width="0.2" stroke-miterlimit="10"/>
<path d="M50.196 258.838C50.196 259.522 49.7282 260.076 49.151 260.076C48.5738 260.076 48.106 259.522 48.106 258.838C48.106 258.155 48.5738 257.601 49.151 257.601C49.7282 257.6 50.196 258.155 50.196 258.838Z" fill="#E3E8ED"/>
<path d="M50.1964 258.838C50.211 258.177 49.7099 257.584 49.1513 257.601C48.5927 257.584 48.0916 258.177 48.1063 258.838C48.0916 259.5 48.5927 260.093 49.1513 260.076C49.7099 260.093 50.211 259.5 50.1964 258.838Z" stroke="#2E4465" stroke-opacity="0.2" stroke-width="0.2" stroke-miterlimit="10"/>
<path d="M119.537 18.5162C120.773 18.5162 121.776 17.3293 121.776 15.8651C121.776 14.4008 120.773 13.2139 119.537 13.2139C118.3 13.2139 117.298 14.4008 117.298 15.8651C117.298 17.3293 118.3 18.5162 119.537 18.5162Z" fill="#E3E8ED"/>
<path d="M121.776 15.8644C121.778 15.1689 121.537 14.4794 121.12 13.9902C120.707 13.4969 120.124 13.2112 119.538 13.2139C118.951 13.2112 118.368 13.4969 117.955 13.9902C117.538 14.4801 117.297 15.1696 117.299 15.8644C117.297 16.5592 117.538 17.2494 117.955 17.7387C118.369 18.2319 118.951 18.5176 119.538 18.5149C120.125 18.5176 120.707 18.2319 121.12 17.7387C121.537 17.2487 121.778 16.5592 121.776 15.8644Z" stroke="#2E4465" stroke-opacity="0.2" stroke-width="0.2" stroke-miterlimit="10"/>
<path d="M120.583 15.8635C120.583 16.547 120.115 17.101 119.538 17.101C118.961 17.101 118.493 16.547 118.493 15.8635C118.493 15.18 118.961 14.626 119.538 14.626C120.114 14.6253 120.583 15.18 120.583 15.8635Z" fill="#E3E8ED"/>
<path d="M120.583 15.8639C120.597 15.2024 120.096 14.6084 119.538 14.6264C118.979 14.609 118.478 15.2024 118.493 15.8639C118.478 16.5253 118.979 17.1187 119.538 17.1014C120.096 17.1187 120.597 16.5253 120.583 15.8639Z" stroke="#2E4465" stroke-opacity="0.2" stroke-width="0.2" stroke-miterlimit="10"/>
<path d="M107.725 94.9772C108.962 94.9772 109.964 93.7902 109.964 92.326C109.964 90.8618 108.962 89.6748 107.725 89.6748C106.489 89.6748 105.487 90.8618 105.487 92.326C105.487 93.7902 106.489 94.9772 107.725 94.9772Z" fill="#E3E8ED"/>
<path d="M109.964 92.3263C109.965 91.6308 109.725 90.9413 109.308 90.4521C108.894 89.9588 108.312 89.6731 107.725 89.6758C107.138 89.6731 106.556 89.9588 106.143 90.4521C105.726 90.942 105.485 91.6315 105.487 92.3263C105.485 93.0212 105.726 93.7106 106.143 94.2006C106.556 94.6938 107.139 94.9795 107.725 94.9768C108.313 94.9795 108.894 94.6938 109.308 94.2006C109.725 93.7113 109.966 93.0218 109.964 92.3263Z" stroke="#2E4465" stroke-opacity="0.2" stroke-width="0.2" stroke-miterlimit="10"/>
<path d="M107.726 93.5639C108.303 93.5639 108.771 93.0098 108.771 92.3264C108.771 91.6429 108.303 91.0889 107.726 91.0889C107.149 91.0889 106.681 91.6429 106.681 92.3264C106.681 93.0098 107.149 93.5639 107.726 93.5639Z" fill="#E3E8ED"/>
<path d="M108.771 92.3267C108.785 91.6653 108.284 91.0719 107.726 91.0892C107.167 91.0719 106.666 91.6653 106.681 92.3267C106.666 92.9882 107.167 93.5816 107.726 93.5642C108.284 93.5822 108.785 92.9882 108.771 92.3267Z" stroke="#2E4465" stroke-opacity="0.2" stroke-width="0.2" stroke-miterlimit="10"/>
<path d="M11.2309 215.746C11.2309 217.21 10.2287 218.397 8.99206 218.397C7.75594 218.397 6.75317 217.21 6.75317 215.746C6.75317 214.282 7.75537 213.095 8.99206 213.095C10.2287 213.095 11.2309 214.281 11.2309 215.746Z" fill="#E3E8ED"/>
<path d="M11.2308 215.745C11.2331 215.05 10.9918 214.36 10.5753 213.871C10.1615 213.378 9.57927 213.092 8.99249 213.095C8.40515 213.093 7.82345 213.378 7.40972 213.871C6.99317 214.361 6.75191 215.05 6.75417 215.745C6.75248 216.441 6.99317 217.13 7.40972 217.62C7.82345 218.113 8.40572 218.398 8.99249 218.396C9.57927 218.398 10.1621 218.113 10.5753 217.62C10.9918 217.13 11.2325 216.44 11.2308 215.745Z" stroke="#2E4465" stroke-opacity="0.2" stroke-width="0.2" stroke-miterlimit="10"/>
<path d="M10.0371 215.746C10.0371 216.43 9.56926 216.984 8.99206 216.984C8.41487 216.984 7.94702 216.43 7.94702 215.746C7.94702 215.063 8.41487 214.509 8.99206 214.509C9.56926 214.509 10.0371 215.063 10.0371 215.746Z" fill="#E3E8ED"/>
<path d="M10.0374 215.748C10.0521 215.086 9.55097 214.493 8.99238 214.51C8.43378 214.493 7.93268 215.086 7.94734 215.748C7.93268 216.409 8.43378 217.002 8.99238 216.985C9.55097 217.002 10.0526 216.409 10.0374 215.748Z" stroke="#2E4465" stroke-opacity="0.2" stroke-width="0.2" stroke-miterlimit="10"/>
<path d="M81.614 203.519C83.216 203.519 84.5146 201.981 84.5146 200.084C84.5146 198.187 83.216 196.649 81.614 196.649C80.012 196.649 78.7134 198.187 78.7134 200.084C78.7134 201.981 80.012 203.519 81.614 203.519Z" fill="#E3E8ED"/>
<path d="M84.5144 200.086C84.5167 199.185 84.2049 198.292 83.665 197.657C83.1289 197.018 82.3747 196.648 81.6138 196.651C80.8528 196.649 80.0986 197.018 79.5626 197.657C79.0226 198.292 78.7103 199.185 78.7132 200.086C78.7103 200.987 79.0226 201.88 79.5626 202.515C80.0986 203.155 80.8528 203.524 81.6138 203.521C82.3742 203.524 83.1289 203.155 83.665 202.515C84.2049 201.88 84.5172 200.987 84.5144 200.086Z" stroke="#2E4465" stroke-opacity="0.2" stroke-width="0.2" stroke-miterlimit="10"/>
<path d="M82.9688 200.083C82.9688 200.969 82.3623 201.687 81.6149 201.687C80.8669 201.687 80.261 200.968 80.261 200.083C80.261 199.198 80.8675 198.479 81.6149 198.479C82.3623 198.479 82.9688 199.198 82.9688 200.083Z" fill="#E3E8ED"/>
<path d="M82.9692 200.083C82.9884 199.226 82.3391 198.456 81.6153 198.479C80.8916 198.456 80.2422 199.225 80.2614 200.082C80.2422 200.939 80.8916 201.709 81.6153 201.686C82.3385 201.709 82.9884 200.94 82.9692 200.083Z" stroke="#2E4465" stroke-opacity="0.2" stroke-width="0.2" stroke-miterlimit="10"/>
<path d="M115.508 244.451C117.11 244.451 118.409 242.913 118.409 241.016C118.409 239.119 117.11 237.581 115.508 237.581C113.906 237.581 112.607 239.119 112.607 241.016C112.607 242.913 113.906 244.451 115.508 244.451Z" fill="#E3E8ED"/>
<path d="M118.409 241.017C118.411 240.116 118.099 239.223 117.559 238.588C117.023 237.948 116.269 237.579 115.508 237.582C114.747 237.579 113.993 237.948 113.457 238.588C112.917 239.223 112.605 240.116 112.607 241.017C112.605 241.917 112.917 242.811 113.457 243.446C113.993 244.085 114.747 244.455 115.508 244.452C116.268 244.454 117.023 244.085 117.559 243.446C118.099 242.811 118.412 241.918 118.409 241.017Z" stroke="#2E4465" stroke-opacity="0.2" stroke-width="0.2" stroke-miterlimit="10"/>
<path d="M116.863 241.016C116.863 241.902 116.256 242.62 115.509 242.62C114.761 242.62 114.155 241.901 114.155 241.016C114.155 240.131 114.762 239.413 115.509 239.413C116.256 239.413 116.863 240.131 116.863 241.016Z" fill="#E3E8ED"/>
<path d="M116.862 241.016C116.882 240.159 116.232 239.39 115.508 239.413C114.784 239.39 114.135 240.159 114.154 241.016C114.135 241.873 114.784 242.642 115.508 242.619C116.232 242.642 116.882 241.873 116.862 241.016Z" stroke="#2E4465" stroke-opacity="0.2" stroke-width="0.2" stroke-miterlimit="10"/>
<path d="M38.3201 244.451C39.922 244.451 41.2207 242.913 41.2207 241.016C41.2207 239.119 39.922 237.581 38.3201 237.581C36.7181 237.581 35.4194 239.119 35.4194 241.016C35.4194 242.913 36.7181 244.451 38.3201 244.451Z" fill="#E3E8ED"/>
<path d="M41.2207 241.017C41.223 240.116 40.9113 239.223 40.3713 238.588C39.8352 237.948 39.081 237.579 38.3201 237.582C37.5591 237.579 36.8049 237.948 36.2689 238.588C35.7289 239.223 35.4166 240.116 35.4195 241.017C35.4166 241.917 35.7289 242.811 36.2689 243.446C36.8049 244.085 37.5591 244.455 38.3201 244.452C39.0805 244.454 39.8352 244.085 40.3713 243.446C40.9113 242.811 41.2235 241.918 41.2207 241.017Z" stroke="#2E4465" stroke-opacity="0.2" stroke-width="0.2" stroke-miterlimit="10"/>
<path d="M39.6742 241.016C39.6742 241.902 39.0677 242.62 38.3202 242.62C37.5723 242.62 36.9663 241.901 36.9663 241.016C36.9663 240.131 37.5728 239.413 38.3202 239.413C39.0677 239.413 39.6742 240.131 39.6742 241.016Z" fill="#E3E8ED"/>
<path d="M39.6746 241.016C39.6938 240.159 39.0444 239.39 38.3207 239.413C37.5969 239.39 36.9476 240.159 36.9667 241.016C36.9476 241.873 37.5969 242.642 38.3207 242.619C39.0438 242.642 39.6938 241.873 39.6746 241.016Z" stroke="#2E4465" stroke-opacity="0.2" stroke-width="0.2" stroke-miterlimit="10"/>
<path d="M99.3118 160.819C100.914 160.819 102.212 159.281 102.212 157.384C102.212 155.487 100.914 153.949 99.3118 153.949C97.7098 153.949 96.4111 155.487 96.4111 157.384C96.4111 159.281 97.7098 160.819 99.3118 160.819Z" fill="#E3E8ED"/>
<path d="M102.212 157.384C102.215 156.484 101.903 155.59 101.363 154.955C100.827 154.316 100.072 153.946 99.3115 153.949C98.5511 153.946 97.7964 154.316 97.2604 154.955C96.7204 155.59 96.4081 156.483 96.4109 157.384C96.4081 158.284 96.7204 159.178 97.2604 159.813C97.7964 160.452 98.5506 160.822 99.3115 160.819C100.072 160.822 100.827 160.452 101.363 159.813C101.903 159.178 102.215 158.284 102.212 157.384Z" stroke="#2E4465" stroke-opacity="0.2" stroke-width="0.2" stroke-miterlimit="10"/>
<path d="M100.666 157.385C100.666 158.27 100.059 158.988 99.3119 158.988C98.564 158.988 97.958 158.27 97.958 157.385C97.958 156.499 98.5645 155.781 99.3119 155.781C100.059 155.781 100.666 156.499 100.666 157.385Z" fill="#E3E8ED"/>
<path d="M100.666 157.384C100.685 156.527 100.036 155.758 99.3121 155.781C98.5884 155.758 97.939 156.527 97.9582 157.384C97.939 158.241 98.5884 159.01 99.3121 158.987C100.035 159.01 100.685 158.241 100.666 157.384Z" stroke="#2E4465" stroke-opacity="0.2" stroke-width="0.2" stroke-miterlimit="10"/>
</svg>
