<svg width="16" height="17" viewBox="0 0 16 17" fill="none" xmlns="http://www.w3.org/2000/svg">
<path d="M14.3535 5.35375L6.35354 13.3537C6.3071 13.4002 6.25196 13.4371 6.19126 13.4623C6.13056 13.4874 6.0655 13.5004 5.99979 13.5004C5.93408 13.5004 5.86902 13.4874 5.80832 13.4623C5.74762 13.4371 5.69248 13.4002 5.64604 13.3537L2.14604 9.85375C2.05222 9.75993 1.99951 9.63268 1.99951 9.5C1.99951 9.36731 2.05222 9.24007 2.14604 9.14625C2.23986 9.05243 2.36711 8.99972 2.49979 8.99972C2.63247 8.99972 2.75972 9.05243 2.85354 9.14625L5.99979 12.2931L13.646 4.64625C13.7399 4.55243 13.8671 4.49972 13.9998 4.49972C14.1325 4.49972 14.2597 4.55243 14.3535 4.64625C14.4474 4.74007 14.5001 4.86731 14.5001 5C14.5001 5.13268 14.4474 5.25993 14.3535 5.35375Z" fill="black"/>
</svg>
