<svg width="24" height="24" viewBox="0 0 24 24" fill="none" xmlns="http://www.w3.org/2000/svg">
<path d="M18.3525 4.85286C18.404 4.79759 18.4661 4.75327 18.5351 4.72252C18.6041 4.69178 18.6786 4.67525 18.7541 4.67392C18.8296 4.67258 18.9047 4.68648 18.9747 4.71477C19.0447 4.74306 19.1084 4.78517 19.1618 4.83858C19.2152 4.89199 19.2573 4.95562 19.2856 5.02566C19.3139 5.0957 19.3278 5.17072 19.3265 5.24625C19.3251 5.32178 19.3086 5.39626 19.2778 5.46526C19.2471 5.53426 19.2028 5.59636 19.1475 5.64786L12.7959 12.0004L19.1475 18.3529C19.2469 18.4595 19.301 18.6005 19.2984 18.7463C19.2958 18.892 19.2368 19.031 19.1337 19.1341C19.0307 19.2371 18.8916 19.2962 18.7459 19.2987C18.6002 19.3013 18.4591 19.2472 18.3525 19.1479L12 12.7963L5.64751 19.1479C5.54088 19.2472 5.39984 19.3013 5.25411 19.2987C5.10839 19.2962 4.96935 19.2371 4.86629 19.1341C4.76323 19.031 4.7042 18.892 4.70163 18.7463C4.69905 18.6005 4.75315 18.4595 4.85251 18.3529L11.2041 12.0004L4.85251 5.64786C4.75315 5.54123 4.69905 5.40019 4.70163 5.25447C4.7042 5.10874 4.76323 4.9697 4.86629 4.86664C4.96935 4.76358 5.10839 4.70455 5.25411 4.70198C5.39984 4.69941 5.54088 4.7535 5.64751 4.85286L12 11.2044L18.3525 4.85286Z" fill="#1B3050"/>
</svg>
