<svg width="24" height="24" viewBox="0 0 24 24" fill="none" xmlns="http://www.w3.org/2000/svg">
<path d="M18.3521 4.85286C18.4036 4.79759 18.4657 4.75327 18.5347 4.72252C18.6037 4.69178 18.6782 4.67525 18.7537 4.67392C18.8293 4.67258 18.9043 4.68648 18.9743 4.71477C19.0444 4.74306 19.108 4.78517 19.1614 4.83858C19.2148 4.89199 19.2569 4.95562 19.2852 5.02566C19.3135 5.0957 19.3274 5.17072 19.3261 5.24625C19.3248 5.32178 19.3082 5.39626 19.2775 5.46526C19.2467 5.53426 19.2024 5.59636 19.1471 5.64786L12.7956 12.0004L19.1471 18.3529C19.2465 18.4595 19.3006 18.6005 19.298 18.7463C19.2955 18.892 19.2364 19.031 19.1334 19.1341C19.0303 19.2371 18.8913 19.2962 18.7455 19.2987C18.5998 19.3013 18.4588 19.2472 18.3521 19.1479L11.9996 12.7963L5.64714 19.1479C5.54051 19.2472 5.39947 19.3013 5.25375 19.2987C5.10802 19.2962 4.96898 19.2371 4.86592 19.1341C4.76286 19.031 4.70383 18.892 4.70126 18.7463C4.69869 18.6005 4.75278 18.4595 4.85214 18.3529L11.2037 12.0004L4.85214 5.64786C4.75278 5.54123 4.69869 5.40019 4.70126 5.25447C4.70383 5.10874 4.76286 4.9697 4.86592 4.86664C4.96898 4.76358 5.10802 4.70455 5.25375 4.70198C5.39947 4.69941 5.54051 4.7535 5.64714 4.85286L11.9996 11.2044L18.3521 4.85286Z" fill="white"/>
</svg>
