<svg width="40" height="41" viewBox="0 0 40 41" fill="none" xmlns="http://www.w3.org/2000/svg">
<rect y="0.5" width="40" height="40" rx="8" fill="white"/>
<g clip-path="url(#clip0_1305_12621)">
<path d="M9.34926 28.3991C9.1749 28.5762 9.17711 28.8611 9.35421 29.0355C9.5313 29.2099 9.81622 29.2077 9.99058 29.0306L9.34926 28.3991ZM30.5192 15.2751C30.5134 15.0267 30.3073 14.83 30.0588 14.8358L26.0099 14.9307C25.7615 14.9365 25.5648 15.1426 25.5706 15.3911C25.5764 15.6395 25.7826 15.8362 26.031 15.8304L29.63 15.7461L29.7144 19.3451C29.7202 19.5936 29.9263 19.7903 30.1748 19.7844C30.4232 19.7786 30.6199 19.5725 30.6141 19.324L30.5192 15.2751ZM20.4893 24.2037L20.2066 24.5538L20.4893 24.2037ZM17.5313 21.8153L17.2486 22.1654L17.5313 21.8153ZM9.99058 29.0306L16.7202 22.1955L16.0789 21.5641L9.34926 28.3991L9.99058 29.0306ZM17.2486 22.1654L20.2066 24.5538L20.772 23.8536L17.814 21.4651L17.2486 22.1654ZM21.9558 24.4403L30.3949 15.5963L29.7438 14.975L21.3047 23.819L21.9558 24.4403ZM20.2066 24.5538C20.7305 24.9768 21.4911 24.9274 21.9558 24.4403L21.3047 23.819C21.1632 23.9674 20.9316 23.9824 20.772 23.8536L20.2066 24.5538ZM16.7202 22.1955C16.8624 22.0511 17.0909 22.0381 17.2486 22.1654L17.814 21.4651C17.2962 21.0471 16.5458 21.0899 16.0789 21.5641L16.7202 22.1955Z" fill="#2E4465"/>
<path d="M17 11.4375C16.1965 11.4375 15.4111 11.6758 14.743 12.1222C14.0749 12.5685 13.5542 13.203 13.2467 13.9453C12.9393 14.6877 12.8588 15.5045 13.0156 16.2926C13.1723 17.0806 13.5592 17.8045 14.1274 18.3726C14.6955 18.9408 15.4194 19.3277 16.2074 19.4844C16.9955 19.6412 17.8123 19.5607 18.5547 19.2533C19.297 18.9458 19.9315 18.4251 20.3778 17.757C20.8242 17.0889 21.0625 16.3035 21.0625 15.5C21.0614 14.4229 20.633 13.3903 19.8714 12.6286C19.1097 11.867 18.0771 11.4386 17 11.4375ZM17 18.9375C16.3201 18.9375 15.6555 18.7359 15.0902 18.3582C14.5249 17.9805 14.0843 17.4436 13.8242 16.8155C13.564 16.1874 13.4959 15.4962 13.6286 14.8294C13.7612 14.1626 14.0886 13.5501 14.5693 13.0693C15.0501 12.5886 15.6626 12.2612 16.3294 12.1286C16.9962 11.9959 17.6874 12.064 18.3155 12.3242C18.9436 12.5843 19.4805 13.0249 19.8582 13.5902C20.2359 14.1555 20.4375 14.8201 20.4375 15.5C20.4365 16.4114 20.074 17.2851 19.4295 17.9295C18.7851 18.574 17.9114 18.9365 17 18.9375ZM18.5625 16.2812C18.5625 16.5713 18.4473 16.8495 18.2422 17.0546C18.037 17.2598 17.7588 17.375 17.4688 17.375H17.3125V17.6875C17.3125 17.7704 17.2796 17.8499 17.221 17.9085C17.1624 17.9671 17.0829 18 17 18C16.9171 18 16.8376 17.9671 16.779 17.9085C16.7204 17.8499 16.6875 17.7704 16.6875 17.6875V17.375H16.0625C15.9796 17.375 15.9001 17.3421 15.8415 17.2835C15.7829 17.2249 15.75 17.1454 15.75 17.0625C15.75 16.9796 15.7829 16.9001 15.8415 16.8415C15.9001 16.7829 15.9796 16.75 16.0625 16.75H17.4688C17.5931 16.75 17.7123 16.7006 17.8002 16.6127C17.8881 16.5248 17.9375 16.4056 17.9375 16.2812C17.9375 16.1569 17.8881 16.0377 17.8002 15.9498C17.7123 15.8619 17.5931 15.8125 17.4688 15.8125H16.5313C16.2412 15.8125 15.963 15.6973 15.7579 15.4921C15.5527 15.287 15.4375 15.0088 15.4375 14.7188C15.4375 14.4287 15.5527 14.1505 15.7579 13.9454C15.963 13.7402 16.2412 13.625 16.5313 13.625H16.6875V13.3125C16.6875 13.2296 16.7204 13.1501 16.779 13.0915C16.8376 13.0329 16.9171 13 17 13C17.0829 13 17.1624 13.0329 17.221 13.0915C17.2796 13.1501 17.3125 13.2296 17.3125 13.3125V13.625H17.9375C18.0204 13.625 18.0999 13.6579 18.1585 13.7165C18.2171 13.7751 18.25 13.8546 18.25 13.9375C18.25 14.0204 18.2171 14.0999 18.1585 14.1585C18.0999 14.2171 18.0204 14.25 17.9375 14.25H16.5313C16.4069 14.25 16.2877 14.2994 16.1998 14.3873C16.1119 14.4752 16.0625 14.5944 16.0625 14.7188C16.0625 14.8431 16.1119 14.9623 16.1998 15.0502C16.2877 15.1381 16.4069 15.1875 16.5313 15.1875H17.4688C17.7588 15.1875 18.037 15.3027 18.2422 15.5079C18.4473 15.713 18.5625 15.9912 18.5625 16.2812Z" fill="#2E4465"/>
</g>
<defs>
<clipPath id="clip0_1305_12621">
<rect width="24" height="24" fill="white" transform="translate(8 8.5)"/>
</clipPath>
</defs>
</svg>
