<svg width="40" height="40" viewBox="0 0 40 40" fill="none" xmlns="http://www.w3.org/2000/svg">
<g clip-path="url(#clip0_478_4320)">
<path d="M39.7332 32.406L37.3792 29.306C37.203 29.0727 36.9542 28.9048 36.6719 28.8288C36.3897 28.7527 36.0901 28.7729 35.8206 28.886C35.4778 27.9449 35.3147 26.9479 35.3399 25.9467C35.4222 24.0715 34.8167 22.2308 33.6372 20.7707L29.9812 15.9333C29.7852 15.6726 29.5313 15.4611 29.2395 15.3153C28.9477 15.1695 28.6261 15.0935 28.2999 15.0933C27.9203 15.0904 27.5485 15.2019 27.2332 15.4133C27.0089 15.5588 26.8165 15.7484 26.6679 15.9707V14.524C26.73 12.6485 26.1037 10.815 24.9072 9.36933C24.2637 8.56362 23.7834 7.64017 23.4932 6.65067C23.8157 6.61169 24.1129 6.45634 24.3289 6.21379C24.545 5.97123 24.665 5.65815 24.6666 5.33333V1.33333C24.6666 0.979711 24.5261 0.640573 24.276 0.390524C24.026 0.140476 23.6869 0 23.3332 0L13.9999 0C13.6463 0 13.3071 0.140476 13.0571 0.390524C12.807 0.640573 12.6666 0.979711 12.6666 1.33333V5.33333C12.6673 5.64709 12.7787 5.95053 12.9811 6.19026C13.1836 6.42999 13.464 6.59066 13.7732 6.644C13.5732 7.2201 13.314 7.77394 12.9999 8.29667C11.9999 9.8 11.9999 10.372 11.9999 13.5553V15.1227C11.6278 15.0685 11.2481 15.1152 10.9002 15.2578C10.5523 15.4004 10.249 15.6337 10.0219 15.9333L6.36124 20.7713C5.18172 22.2312 4.57621 24.0717 4.65857 25.9467C4.68373 26.9476 4.52091 27.9444 4.17857 28.8853C3.90939 28.7724 3.61031 28.7522 3.32839 28.8279C3.04647 28.9036 2.7977 29.0708 2.62124 29.3033L0.266572 32.4087C0.0574311 32.6878 -0.0325046 33.0384 0.0164844 33.3837C0.0654734 33.729 0.249389 34.0408 0.527905 34.2507L7.79457 39.738C8.07367 39.9463 8.4238 40.0358 8.76861 39.9869C9.11342 39.9381 9.42494 39.7549 9.63524 39.4773L11.9899 36.376C12.168 36.147 12.2641 35.8648 12.2628 35.5747C12.2615 35.2846 12.1628 35.0034 11.9826 34.776C12.4648 34.4625 12.9763 34.1966 13.5099 33.982C15.2126 33.3893 15.5592 32.9313 17.4812 30.3887L18.4492 29.1147C18.7228 29.2555 19.0255 29.3304 19.3332 29.3333C19.6692 29.3324 19.9996 29.2468 20.2938 29.0845C20.588 28.9222 20.8366 28.6884 21.0166 28.4047L22.5252 30.394C24.4446 32.9327 24.7919 33.3907 26.4926 33.9827C27.0267 34.1976 27.5387 34.4639 28.0212 34.778C27.8415 35.0049 27.743 35.2854 27.7415 35.5748C27.7399 35.8643 27.8353 36.1459 28.0126 36.3747L30.3666 39.4747C30.5769 39.7537 30.8892 39.9379 31.2352 39.9869C31.5811 40.0359 31.9324 39.9457 32.2119 39.736L39.4739 34.252C39.6123 34.1479 39.7288 34.0176 39.8167 33.8685C39.9047 33.7194 39.9625 33.5544 39.9867 33.383C40.0109 33.2116 40.0011 33.0371 39.9578 32.8694C39.9146 32.7018 39.8387 32.5443 39.7346 32.406H39.7332ZM13.9999 1.33333H23.3332V5.33333H13.9999V1.33333ZM8.59124 38.6727L1.32457 33.212L3.65791 30.1087L10.9159 35.5753L8.59124 38.6727ZM16.4112 29.5893C14.5319 32.0753 14.3586 32.2747 13.0666 32.7227C12.3001 33.0294 11.5708 33.4219 10.8926 33.8927L5.29657 29.672C5.7829 28.5039 6.01974 27.247 5.9919 25.982C5.90397 24.3859 6.41486 22.8145 7.42457 21.5753L11.0852 16.7353C11.1861 16.5952 11.3338 16.4958 11.5016 16.4552C11.6694 16.4146 11.8462 16.4354 11.9999 16.514V17.7367L9.78124 20.67C9.72849 20.74 9.69005 20.8198 9.66812 20.9047C9.64619 20.9896 9.6412 21.0779 9.65343 21.1648C9.66565 21.2516 9.69486 21.3352 9.73938 21.4107C9.7839 21.4862 9.84287 21.5523 9.9129 21.605C9.98294 21.6577 10.0627 21.6962 10.1476 21.7181C10.2325 21.74 10.3209 21.745 10.4077 21.7328C10.4945 21.7206 10.5781 21.6914 10.6536 21.6469C10.7291 21.6023 10.7952 21.5434 10.8479 21.4733L11.9999 19.948V23.3333C11.9999 23.8638 12.2106 24.3725 12.5857 24.7475C12.9608 25.1226 13.4695 25.3333 13.9999 25.3333C14.2275 25.3311 14.4531 25.2896 14.6666 25.2107V25.3333C14.6666 25.8638 14.8773 26.3725 15.2524 26.7475C15.6274 27.1226 16.1361 27.3333 16.6666 27.3333C16.8942 27.3311 17.1197 27.2896 17.3332 27.2107V27.3333C17.3339 27.6129 17.3936 27.8892 17.5086 28.144L16.4112 29.5893ZM19.9999 27.3333C19.9999 27.5101 19.9297 27.6797 19.8046 27.8047C19.6796 27.9298 19.51 28 19.3332 28C19.1564 28 18.9869 27.9298 18.8618 27.8047C18.7368 27.6797 18.6666 27.5101 18.6666 27.3333V17.3333C18.6666 17.1565 18.5963 16.987 18.4713 16.8619C18.3463 16.7369 18.1767 16.6667 17.9999 16.6667C17.8231 16.6667 17.6535 16.7369 17.5285 16.8619C17.4035 16.987 17.3332 17.1565 17.3332 17.3333V25.3333C17.3332 25.5101 17.263 25.6797 17.138 25.8047C17.013 25.9298 16.8434 26 16.6666 26C16.4898 26 16.3202 25.9298 16.1952 25.8047C16.0701 25.6797 15.9999 25.5101 15.9999 25.3333V17.3333C15.9999 17.1565 15.9297 16.987 15.8046 16.8619C15.6796 16.7369 15.51 16.6667 15.3332 16.6667C15.1564 16.6667 14.9869 16.7369 14.8618 16.8619C14.7368 16.987 14.6666 17.1565 14.6666 17.3333V23.3333C14.6666 23.5101 14.5963 23.6797 14.4713 23.8047C14.3463 23.9298 14.1767 24 13.9999 24C13.8231 24 13.6535 23.9298 13.5285 23.8047C13.4035 23.6797 13.3332 23.5101 13.3332 23.3333V13.5553C13.3332 10.438 13.3512 10.1753 14.1106 9.03667C14.5592 8.29239 14.9162 7.49662 15.1739 6.66667H22.1232C22.4313 7.93526 23.0106 9.12204 23.8212 10.1453C24.8538 11.3651 25.3931 12.9269 25.3332 14.524V20.5907C25.3411 20.7711 25.2806 20.9478 25.1638 21.0855C25.047 21.2231 24.8825 21.3117 24.7032 21.3333C24.6126 21.3394 24.5217 21.3263 24.4364 21.2951C24.3511 21.2639 24.2732 21.2151 24.2079 21.152C24.1418 21.0897 24.0892 21.0145 24.0534 20.931C24.0176 20.8475 23.9994 20.7575 23.9999 20.6667V16.6667C23.9999 16.4899 23.9297 16.3203 23.8046 16.1953C23.6796 16.0702 23.51 16 23.3332 16C23.1564 16 22.9869 16.0702 22.8618 16.1953C22.7368 16.3203 22.6666 16.4899 22.6666 16.6667V25.3333C22.6666 25.5101 22.5963 25.6797 22.4713 25.8047C22.3463 25.9298 22.1767 26 21.9999 26C21.8231 26 21.6535 25.9298 21.5285 25.8047C21.4035 25.6797 21.3332 25.5101 21.3332 25.3333V17.3333C21.3332 17.1565 21.263 16.987 21.138 16.8619C21.013 16.7369 20.8434 16.6667 20.6666 16.6667C20.4898 16.6667 20.3202 16.7369 20.1952 16.8619C20.0701 16.987 19.9999 17.1565 19.9999 17.3333V27.3333ZM23.5846 29.584L21.8666 27.32C21.9112 27.32 21.9539 27.3333 21.9999 27.3333C22.5303 27.3333 23.039 27.1226 23.4141 26.7475C23.7892 26.3725 23.9999 25.8638 23.9999 25.3333V22.5473C24.2136 22.6252 24.4391 22.6656 24.6666 22.6667C24.7026 22.6667 24.7386 22.6667 24.7752 22.6667C25.2963 22.6287 25.7829 22.3923 26.1348 22.0062C26.4867 21.62 26.677 21.1136 26.6666 20.5913V18.186L26.7259 18.2647V18.2693L29.1512 21.476C29.2579 21.617 29.4163 21.7099 29.5915 21.7341C29.7666 21.7584 29.9442 21.712 30.0852 21.6053C30.2262 21.4986 30.3191 21.3403 30.3433 21.1651C30.3676 20.99 30.3213 20.8123 30.2146 20.6713L27.7872 17.462C27.7338 17.3916 27.6956 17.3109 27.6749 17.2249C27.6542 17.139 27.6516 17.0497 27.6672 16.9627C27.6835 16.8723 27.7188 16.7864 27.7706 16.7105C27.8224 16.6347 27.8896 16.5707 27.9679 16.5227C28.0653 16.4584 28.1799 16.4249 28.2966 16.4267C28.416 16.4275 28.5336 16.4559 28.6403 16.5095C28.747 16.5632 28.84 16.6407 28.9119 16.736L32.5712 21.5747C33.5813 22.8139 34.0925 24.3856 34.0046 25.982C33.9768 27.2472 34.2136 28.5043 34.6999 29.6727L29.1039 33.8947C28.4267 33.424 27.6986 33.0313 26.9332 32.724C25.6412 32.2747 25.4666 32.0753 23.5846 29.584ZM31.4306 38.6713L29.0666 35.5947L36.3152 30.1093L38.6666 33.1927L31.4306 38.6713Z" fill="#BFA58E"/>
</g>
<defs>
<clipPath id="clip0_478_4320">
<rect width="40" height="40" fill="white"/>
</clipPath>
</defs>
</svg>
