<svg width="172" height="40" viewBox="0 0 172 40" fill="none" xmlns="http://www.w3.org/2000/svg">
<g id="logo">
<path id="Vector" d="M12.7979 23.2677C12.6957 23.2677 12.5766 23.2042 12.4404 23.0769C12.3128 22.9582 12.1893 22.7886 12.0702 22.5682L6.6957 12.24L5.67441 21.9958C5.6574 22.1908 5.60206 22.3392 5.50847 22.441C5.41483 22.5342 5.27015 22.5809 5.07441 22.5809H2.86587C2.46587 22.5809 2.26587 22.4071 2.26587 22.0594V21.9958L4.09142 3.65429C4.09142 3.62037 4.09567 3.57373 4.10417 3.51437C4.12121 3.45502 4.14246 3.3999 4.16801 3.34902C4.19355 3.28966 4.23185 3.24303 4.2829 3.20911C4.34249 3.16671 4.41908 3.14551 4.51268 3.14551C4.6744 3.14551 4.81484 3.24726 4.93398 3.45078C6.24464 5.70636 7.54677 7.9535 8.84039 10.1921C10.134 12.4308 11.4404 14.6778 12.7596 16.9335C12.7596 16.9589 12.7681 16.9801 12.7851 16.997C12.8106 16.9716 12.8234 16.9504 12.8234 16.9335L13.2447 16.094C14.4873 13.974 15.7213 11.8668 16.9469 9.77236C18.1724 7.67789 19.4064 5.57071 20.649 3.45078C20.7596 3.24726 20.9001 3.14551 21.0703 3.14551C21.1554 3.14551 21.2235 3.16671 21.2745 3.20911C21.3341 3.24303 21.3767 3.28966 21.4022 3.34902C21.4363 3.3999 21.4575 3.45502 21.466 3.51437C21.4831 3.57373 21.4916 3.62037 21.4916 3.65429C21.7809 6.57977 22.066 9.48405 22.3469 12.3671C22.6362 15.2502 22.9299 18.1545 23.2277 21.08L23.3171 22.0467V22.0976C23.3171 22.2671 23.2575 22.3901 23.1384 22.4664C23.0278 22.5428 22.8831 22.5809 22.7043 22.5809H20.4958C20.1298 22.5809 19.9299 22.3858 19.8958 21.9958L18.8873 12.24L13.4872 22.6318C13.4702 22.6572 13.4404 22.7038 13.3979 22.7717C13.3553 22.848 13.3042 22.9201 13.2447 22.9879C13.1851 23.0642 13.117 23.1278 13.0404 23.1787C12.9638 23.2381 12.883 23.2677 12.7979 23.2677Z" fill="#1B3050"/>
<path id="Vector_2" d="M28.0573 13.1562C28.0573 12.2658 28.1721 11.4052 28.4019 10.5741C28.6317 9.74311 28.9594 8.96723 29.3849 8.24649C29.8104 7.5257 30.3168 6.86853 30.9041 6.27496C31.4998 5.68139 32.1594 5.17684 32.8828 4.76131C33.6062 4.33735 34.3807 4.01088 35.2062 3.78193C36.0403 3.54449 36.9084 3.42578 37.8105 3.42578C38.7041 3.42578 39.5639 3.54449 40.3893 3.78193C41.2233 4.01088 42.0022 4.33735 42.7256 4.76131C43.449 5.17684 44.1083 5.68139 44.7042 6.27496C45.3001 6.86853 45.8063 7.5257 46.2235 8.24649C46.649 8.96723 46.9764 9.74311 47.2063 10.5741C47.4448 11.4052 47.5637 12.2658 47.5637 13.1562C47.5637 14.055 47.4448 14.92 47.2063 15.751C46.9764 16.5735 46.649 17.3452 46.2235 18.0659C45.8063 18.7782 45.3001 19.4312 44.7042 20.0247C44.1083 20.6098 43.449 21.1144 42.7256 21.5383C42.0022 21.9623 41.2233 22.2888 40.3893 22.5177C39.5639 22.7467 38.7041 22.8612 37.8105 22.8612C36.9084 22.8612 36.0403 22.7467 35.2062 22.5177C34.3807 22.2888 33.6062 21.9623 32.8828 21.5383C32.1594 21.1144 31.4998 20.6098 30.9041 20.0247C30.3168 19.4312 29.8104 18.7782 29.3849 18.0659C28.9594 17.3452 28.6317 16.5735 28.4019 15.751C28.1721 14.92 28.0573 14.055 28.0573 13.1562ZM31.5551 13.1562C31.5551 14.0381 31.7126 14.8648 32.0275 15.6365C32.3509 16.3997 32.7935 17.0695 33.3552 17.6462C33.9169 18.2143 34.5764 18.6637 35.3339 18.9944C36.0998 19.3252 36.9254 19.4905 37.8105 19.4905C38.6871 19.4905 39.5041 19.3252 40.2617 18.9944C41.0277 18.6637 41.6913 18.2143 42.2529 17.6462C42.815 17.0695 43.2574 16.3997 43.5809 15.6365C43.904 14.8648 44.0658 14.0381 44.0658 13.1562C44.0658 12.2828 43.904 11.4603 43.5809 10.6886C43.2574 9.90849 42.815 9.23433 42.2529 8.66621C41.6913 8.08959 41.0277 7.63594 40.2617 7.30523C39.5041 6.96606 38.6871 6.79645 37.8105 6.79645C36.9254 6.79645 36.0998 6.96606 35.3339 7.30523C34.5764 7.63594 33.9169 8.08959 33.3552 8.66621C32.7935 9.23433 32.3509 9.90849 32.0275 10.6886C31.7126 11.4603 31.5551 12.2828 31.5551 13.1562Z" fill="#1B3050"/>
<path id="Vector_3" d="M58.6634 23.2168C58.5614 23.0218 58.4677 22.831 58.3827 22.6444C58.306 22.4579 58.2253 22.2671 58.1399 22.0721L50.5313 4.32837C50.5231 4.28594 50.5144 4.24355 50.5062 4.20116C50.4975 4.15029 50.4932 4.1079 50.4932 4.07398C50.4932 3.81958 50.6636 3.69238 51.0037 3.69238H53.5187C53.6891 3.69238 53.8336 3.73902 53.9528 3.8323C54.0804 3.91709 54.174 4.03582 54.2335 4.18845C55.0592 6.30837 55.8807 8.41978 56.6974 10.5228C57.5231 12.6172 58.3485 14.7244 59.1742 16.8443C59.9996 14.7159 60.8254 12.6088 61.6507 10.5228C62.4761 8.42829 63.3018 6.32108 64.1272 4.20116C64.2634 3.86197 64.5019 3.69238 64.8424 3.69238H67.357C67.6975 3.69238 67.8679 3.81534 67.8679 4.06123C67.8679 4.12908 67.8506 4.20963 67.8168 4.30292C67.7912 4.3877 67.7786 4.44284 67.7786 4.46825L59.9402 22.7208C59.9233 22.7377 59.8977 22.7886 59.8634 22.8734C59.8296 22.9666 59.7827 23.0599 59.7229 23.1532C59.6635 23.2465 59.5867 23.3313 59.4934 23.4076C59.408 23.4839 59.3018 23.5221 59.1742 23.5221C59.0381 23.5221 58.9314 23.4924 58.855 23.433C58.7783 23.3822 58.7145 23.3101 58.6634 23.2168Z" fill="#1B3050"/>
<path id="Vector_4" d="M86.1236 5.23194C86.2172 5.29131 86.294 5.36339 86.3534 5.44817C86.4132 5.53296 86.4428 5.62625 86.4428 5.72802C86.4428 5.79586 86.4302 5.85519 86.4046 5.90609C86.379 5.95696 86.3491 6.01633 86.3152 6.08417L85.0258 7.95394C84.9066 8.12351 84.7747 8.20833 84.6299 8.20833C84.5874 8.20833 84.5279 8.19982 84.4512 8.18288C84.3831 8.1659 84.3067 8.12774 84.2217 8.06841C83.6597 7.6868 83.0768 7.38578 82.4726 7.16531C81.8767 6.93637 81.23 6.8219 80.5322 6.8219C79.6214 6.8219 78.7791 6.99147 78.0045 7.33068C77.2299 7.66986 76.5577 8.12774 75.9874 8.70437C75.4257 9.281 74.9833 9.95511 74.6598 10.7268C74.3449 11.4899 74.1875 12.2997 74.1875 13.1562C74.1875 14.0381 74.3492 14.8606 74.6724 15.6238C75.0046 16.387 75.4513 17.0568 76.0129 17.6335C76.5746 18.2016 77.2299 18.651 77.9789 18.9817C78.7362 19.3039 79.5407 19.4651 80.3917 19.4651C81.6598 19.4651 82.8855 19.0708 84.0682 18.2821L84.4897 18.0532C84.5067 18.0532 84.5236 18.0532 84.5405 18.0532C84.5578 18.0447 84.5748 18.0405 84.5917 18.0405C84.6342 18.0405 84.7109 18.0914 84.8215 18.1931C84.9321 18.2949 85.0557 18.4263 85.1919 18.5874C85.3281 18.7485 85.4682 18.9308 85.6131 19.1344C85.7662 19.3294 85.9024 19.5202 86.0216 19.7067C86.1491 19.8933 86.2515 20.0671 86.3278 20.2282C86.4046 20.3809 86.4428 20.4996 86.4428 20.5844C86.4428 20.6946 86.4132 20.7879 86.3534 20.8642C86.3022 20.9321 86.2302 20.9999 86.1365 21.0677C85.3281 21.6274 84.4472 22.0683 83.494 22.3905C82.5493 22.7043 81.5406 22.8612 80.4684 22.8612C79.5663 22.8612 78.698 22.7467 77.864 22.5177C77.0386 22.2888 76.2641 21.9623 75.5406 21.5383C74.8172 21.1144 74.1576 20.6098 73.562 20.0247C72.9748 19.4312 72.4683 18.7782 72.0428 18.0659C71.6256 17.3452 71.3024 16.5735 71.0726 15.751C70.8427 14.92 70.7278 14.055 70.7278 13.1562C70.7278 12.2658 70.8427 11.4052 71.0726 10.5741C71.3024 9.74311 71.6299 8.96723 72.0554 8.24649C72.4808 7.5257 72.9874 6.86853 73.5746 6.27496C74.1705 5.68139 74.8298 5.17684 75.5532 4.76131C76.2767 4.33735 77.0512 4.01088 77.877 3.78193C78.711 3.54449 79.5789 3.42578 80.481 3.42578C81.528 3.42578 82.5238 3.58266 83.4684 3.8964C84.413 4.21013 85.2982 4.65535 86.1236 5.23194Z" fill="#1B3050"/>
<path id="Vector_5" d="M92.4652 4.25206C92.4652 4.1079 92.5164 3.98068 92.6183 3.87045C92.7203 3.75174 92.8564 3.69238 93.0269 3.69238H95.3758C95.5203 3.69238 95.6565 3.7475 95.7844 3.85774C95.9119 3.95951 95.9757 4.09092 95.9757 4.25206V13.4737H104.912V4.25206C104.912 4.09939 104.963 3.96798 105.065 3.85774C105.176 3.7475 105.316 3.69238 105.486 3.69238H107.81C107.972 3.69238 108.116 3.74326 108.244 3.84501C108.371 3.93829 108.436 4.06974 108.436 4.23931V22.0212C108.436 22.3943 108.231 22.5808 107.823 22.5808H105.486C105.308 22.5808 105.167 22.5342 105.065 22.4409C104.963 22.3476 104.912 22.2077 104.912 22.0212V16.768H95.9757V22.0212C95.9757 22.3943 95.7675 22.5808 95.3502 22.5808H93.0269C92.6695 22.5808 92.4821 22.407 92.4652 22.0593V4.25206Z" fill="#1B3050"/>
<path id="Vector_6" d="M121.778 3.11972C121.82 3.04341 121.879 2.97557 121.956 2.91621C122.033 2.84837 122.144 2.81445 122.288 2.81445C122.416 2.81445 122.522 2.85261 122.607 2.92893C122.692 2.99677 122.76 3.07732 122.812 3.1706C122.871 3.26388 122.918 3.35291 122.952 3.43771C122.995 3.5225 123.029 3.58186 123.054 3.61578L123.271 4.12456C124.565 7.10942 125.841 10.0815 127.101 13.0409C128.369 15.9919 129.646 18.9597 130.931 21.9446C130.939 21.97 130.948 22.0124 130.956 22.0718C130.973 22.1226 130.982 22.165 130.982 22.199C130.982 22.4533 130.812 22.5806 130.471 22.5806H127.944C127.594 22.5806 127.361 22.4194 127.241 22.0972L126.514 20.2274H118.05L117.335 22.0718C117.207 22.411 116.969 22.5806 116.62 22.5806H114.105C113.918 22.5806 113.786 22.5466 113.709 22.4788C113.633 22.411 113.594 22.3177 113.594 22.199C113.594 22.1481 113.599 22.0972 113.607 22.0463C113.624 21.9955 113.641 21.9488 113.658 21.9064C114.935 18.9216 116.207 15.9579 117.475 13.0155C118.743 10.0646 120.024 7.10091 121.318 4.12456C121.386 3.95495 121.458 3.78961 121.535 3.6285C121.611 3.45891 121.693 3.28932 121.778 3.11972ZM122.301 9.25052C122.241 9.41162 122.182 9.57276 122.122 9.73385C122.063 9.89499 122.003 10.0603 121.944 10.2299L119.135 17.3147H125.442L122.645 10.2299C122.595 10.0688 122.539 9.9077 122.48 9.74656C122.42 9.57699 122.36 9.41162 122.301 9.25052Z" fill="#1B3050"/>
<path id="Vector_7" d="M139.89 10.9046V21.9833C139.89 22.3819 139.686 22.5811 139.277 22.5811H137.03C136.639 22.5811 136.443 22.3819 136.443 21.9833V3.56549C136.443 3.53157 136.443 3.48494 136.443 3.42558C136.452 3.35774 136.469 3.29414 136.494 3.23479C136.52 3.17543 136.558 3.12455 136.609 3.08215C136.669 3.03975 136.749 3.01855 136.852 3.01855C136.988 3.01855 137.107 3.07791 137.209 3.19663L149.311 15.6872V4.30323C149.311 3.8962 149.516 3.69269 149.924 3.69269H152.171C152.562 3.69269 152.758 3.8962 152.758 4.30323V22.7846C152.758 22.8186 152.754 22.8652 152.745 22.9246C152.745 22.9839 152.733 23.0433 152.707 23.1026C152.682 23.162 152.639 23.2129 152.579 23.2553C152.529 23.2977 152.452 23.3189 152.349 23.3189C152.213 23.3189 152.094 23.2595 151.992 23.1408L139.89 10.9046Z" fill="#1B3050"/>
<path id="Vector_8" d="M161.139 17.4292C161.419 17.7514 161.713 18.0525 162.02 18.3323C162.326 18.6036 162.645 18.8411 162.977 19.0446C163.317 19.2481 163.679 19.4092 164.062 19.5279C164.445 19.6381 164.862 19.6933 165.313 19.6933C166.335 19.6933 167.101 19.4686 167.611 19.0192C168.13 18.5697 168.39 17.9804 168.39 17.2511C168.39 16.8611 168.309 16.5219 168.147 16.2336C167.986 15.9368 167.769 15.6739 167.496 15.445C167.224 15.216 166.909 15.0167 166.552 14.8472C166.194 14.6691 165.824 14.4952 165.441 14.3256C164.471 13.9356 163.615 13.5455 162.875 13.1554C162.143 12.7654 161.526 12.3372 161.024 11.8708C160.53 11.3959 160.156 10.8702 159.901 10.2936C159.654 9.70846 159.53 9.02587 159.53 8.24575C159.53 7.50799 159.675 6.83387 159.964 6.22332C160.262 5.61281 160.667 5.09128 161.177 4.65885C161.688 4.22638 162.288 3.89143 162.977 3.654C163.675 3.41657 164.419 3.29785 165.211 3.29785C165.551 3.29785 165.896 3.32329 166.245 3.37417C166.594 3.41657 166.939 3.4844 167.279 3.57768C167.62 3.67096 167.943 3.78543 168.25 3.92111C168.564 4.05677 168.858 4.21791 169.13 4.40446C169.318 4.53164 169.505 4.67579 169.692 4.83693C169.879 4.98956 170.049 5.15066 170.203 5.32026C170.356 5.48136 170.479 5.63822 170.573 5.79089C170.667 5.94352 170.713 6.07917 170.713 6.19791C170.713 6.29964 170.692 6.38869 170.65 6.46501C170.615 6.53285 170.552 6.6134 170.458 6.7067L169.245 7.97862C169.135 8.08885 169.024 8.14399 168.913 8.14399C168.82 8.14399 168.73 8.11854 168.645 8.06768C168.569 8.0083 168.496 7.94046 168.428 7.86415L168.377 7.82599C168.207 7.6225 168.007 7.43168 167.777 7.2536C167.556 7.07556 167.313 6.92289 167.049 6.79571C166.786 6.66854 166.505 6.56677 166.207 6.49046C165.909 6.41415 165.607 6.37599 165.3 6.37599C164.952 6.37599 164.632 6.42262 164.343 6.51587C164.062 6.60069 163.82 6.73211 163.615 6.91019C163.411 7.07979 163.249 7.28752 163.13 7.53344C163.019 7.77936 162.964 8.05917 162.964 8.37293C162.964 8.69517 163.028 8.97497 163.156 9.21242C163.284 9.44983 163.471 9.66607 163.718 9.86113C163.973 10.0561 164.288 10.2427 164.662 10.4208C165.037 10.5989 165.471 10.7939 165.964 11.0059L167.075 11.4892C167.798 11.803 168.458 12.1379 169.054 12.494C169.65 12.8417 170.16 13.236 170.585 13.677C171.011 14.1179 171.343 14.6182 171.581 15.1779C171.82 15.7375 171.939 16.3862 171.939 17.124C171.939 17.9974 171.773 18.7902 171.441 19.5025C171.118 20.2063 170.662 20.8126 170.075 21.3214C169.488 21.8217 168.786 22.2075 167.968 22.4789C167.16 22.7502 166.271 22.8859 165.3 22.8859C163.905 22.8859 162.671 22.5933 161.598 22.0082C160.526 21.4231 159.573 20.5879 158.739 19.5025C158.73 19.5025 158.726 19.5025 158.726 19.5025C158.726 19.494 158.722 19.4898 158.713 19.4898C158.645 19.3626 158.586 19.282 158.534 19.2481C158.492 19.2057 158.471 19.1336 158.471 19.0319C158.471 18.8707 158.573 18.7096 158.777 18.5485L160.296 17.2893C160.432 17.2045 160.552 17.1621 160.654 17.1621C160.798 17.1621 160.96 17.2511 161.139 17.4292Z" fill="#1B3050"/>
<path id="Vector_9" d="M42.4856 36.2664C42.4856 35.9507 42.5261 35.6456 42.6076 35.3509C42.6891 35.0563 42.8056 34.7812 42.9563 34.5256C43.1071 34.2701 43.2866 34.0371 43.4948 33.8266C43.7061 33.6162 43.9399 33.4373 44.1965 33.2899C44.4532 33.1396 44.7275 33.0239 45.0203 32.9427C45.3159 32.8585 45.6237 32.8164 45.9437 32.8164C46.318 32.8164 46.6711 32.8735 47.0029 32.9878C47.3347 33.099 47.6487 33.2554 47.9443 33.4568C47.9774 33.4809 48.0046 33.5064 48.0258 33.5335C48.0471 33.5605 48.0573 33.5936 48.0573 33.6327C48.0573 33.6568 48.053 33.6778 48.0439 33.6958C48.0349 33.7139 48.0242 33.7349 48.012 33.759L47.5551 34.4219C47.513 34.4821 47.4661 34.5121 47.4146 34.5121C47.3996 34.5121 47.3783 34.5091 47.3512 34.5031C47.3272 34.4971 47.3 34.4835 47.2697 34.4625C47.0706 34.3272 46.8639 34.2205 46.6498 34.1423C46.4384 34.0611 46.2094 34.0205 45.9618 34.0205C45.6391 34.0205 45.3403 34.0807 45.0656 34.2009C44.7909 34.3212 44.5527 34.4835 44.3504 34.688C44.1513 34.8924 43.9942 35.1315 43.8797 35.405C43.7679 35.6756 43.712 35.9628 43.712 36.2664C43.712 36.5791 43.7679 36.8722 43.8797 37.1458C43.9942 37.4164 44.1513 37.6524 44.3504 37.8539C44.5496 38.0553 44.7818 38.2146 45.0475 38.3319C45.3159 38.4492 45.604 38.5078 45.9118 38.5078C46.0929 38.5078 46.2712 38.4822 46.4459 38.4311C46.6242 38.38 46.8069 38.3169 46.9938 38.2417V37.4164H46.1019C46.0386 37.4164 45.989 37.3969 45.9528 37.3578C45.9197 37.3187 45.9028 37.2676 45.9028 37.2044V36.5595C45.9028 36.4934 45.9209 36.4438 45.9571 36.4107C45.9933 36.3777 46.0417 36.3611 46.1019 36.3611H47.9172C47.9774 36.3611 48.0258 36.3791 48.062 36.4152C48.1014 36.4483 48.1207 36.4964 48.1207 36.5595V38.8956C48.1207 38.9317 48.1116 38.9663 48.0935 38.9993C48.0785 39.0294 48.0514 39.0565 48.012 39.0805L47.9849 39.0986C47.6983 39.3001 47.3815 39.4519 47.0343 39.5542C46.6876 39.6562 46.3239 39.7075 45.9437 39.7075C45.6237 39.7075 45.3159 39.6668 45.0203 39.5856C44.7275 39.5044 44.4532 39.3887 44.1965 39.2385C43.9399 39.0881 43.7061 38.9092 43.4948 38.7017C43.2866 38.4913 43.1071 38.2597 42.9563 38.0072C42.8083 37.7517 42.6922 37.4781 42.6076 37.1864C42.5261 36.8918 42.4856 36.5851 42.4856 36.2664ZM42.4856 36.2664C42.4856 35.9507 42.5261 35.6456 42.6076 35.3509C42.6891 35.0563 42.8056 34.7812 42.9563 34.5256C43.1071 34.2701 43.2866 34.0371 43.4948 33.8266C43.7061 33.6162 43.9399 33.4373 44.1965 33.2899C44.4532 33.1396 44.7275 33.0239 45.0203 32.9427C45.3159 32.8585 45.6237 32.8164 45.9437 32.8164C46.318 32.8164 46.6711 32.8735 47.0029 32.9878C47.3347 33.099 47.6487 33.2554 47.9443 33.4568C47.9774 33.4809 48.0046 33.5064 48.0258 33.5335C48.0471 33.5605 48.0573 33.5936 48.0573 33.6327C48.0573 33.6568 48.053 33.6778 48.0439 33.6958C48.0349 33.7139 48.0242 33.7349 48.012 33.759L47.5551 34.4219C47.513 34.4821 47.4661 34.5121 47.4146 34.5121C47.3996 34.5121 47.3783 34.5091 47.3512 34.5031C47.3272 34.4971 47.3 34.4835 47.2697 34.4625C47.0706 34.3272 46.8639 34.2205 46.6498 34.1423C46.4384 34.0611 46.2094 34.0205 45.9618 34.0205C45.6391 34.0205 45.3403 34.0807 45.0656 34.2009C44.7909 34.3212 44.5527 34.4835 44.3504 34.688C44.1513 34.8924 43.9942 35.1315 43.8797 35.405C43.7679 35.6756 43.712 35.9628 43.712 36.2664C43.712 36.5791 43.7679 36.8722 43.8797 37.1458C43.9942 37.4164 44.1513 37.6524 44.3504 37.8539C44.5496 38.0553 44.7818 38.2146 45.0475 38.3319C45.3159 38.4492 45.604 38.5078 45.9118 38.5078C46.0929 38.5078 46.2712 38.4822 46.4459 38.4311C46.6242 38.38 46.8069 38.3169 46.9938 38.2417V37.4164H46.1019C46.0386 37.4164 45.989 37.3969 45.9528 37.3578C45.9197 37.3187 45.9028 37.2676 45.9028 37.2044V36.5595C45.9028 36.4934 45.9209 36.4438 45.9571 36.4107C45.9933 36.3777 46.0417 36.3611 46.1019 36.3611H47.9172C47.9774 36.3611 48.0258 36.3791 48.062 36.4152C48.1014 36.4483 48.1207 36.4964 48.1207 36.5595V38.8956C48.1207 38.9317 48.1116 38.9663 48.0935 38.9993C48.0785 39.0294 48.0514 39.0565 48.012 39.0805L47.9849 39.0986C47.6983 39.3001 47.3815 39.4519 47.0343 39.5542C46.6876 39.6562 46.3239 39.7075 45.9437 39.7075C45.6237 39.7075 45.3159 39.6668 45.0203 39.5856C44.7275 39.5044 44.4532 39.3887 44.1965 39.2385C43.9399 39.0881 43.7061 38.9092 43.4948 38.7017C43.2866 38.4913 43.1071 38.2597 42.9563 38.0072C42.8083 37.7517 42.6922 37.4781 42.6076 37.1864C42.5261 36.8918 42.4856 36.5851 42.4856 36.2664Z" fill="#1B3050"/>
<path id="Vector_10" d="M65.9476 32.916C66.1889 32.916 66.4231 32.9476 66.6494 33.0107C66.8785 33.0739 67.0914 33.1626 67.2874 33.2768C67.4866 33.3911 67.6676 33.5293 67.8306 33.6917C67.9967 33.8511 68.1383 34.0299 68.256 34.2284C68.3737 34.4238 68.4642 34.6358 68.5276 34.8643C68.5941 35.0928 68.6272 35.3303 68.6272 35.5768C68.6272 35.7873 68.6032 35.9917 68.5548 36.1901C68.5095 36.3856 68.4418 36.572 68.3513 36.7493C68.2635 36.9237 68.158 37.0876 68.0344 37.2409C67.9105 37.3942 67.7719 37.5311 67.618 37.6513L68.4418 39.2883C68.4568 39.3154 68.4717 39.3456 68.4871 39.3785C68.502 39.4115 68.5111 39.4401 68.5142 39.4644C68.5142 39.5095 68.4973 39.5456 68.4642 39.5726C68.4312 39.5966 68.3887 39.6087 68.3375 39.6087H67.3736C67.2618 39.6087 67.1862 39.5515 67.1473 39.4373L66.5179 38.1609C66.4274 38.185 66.3337 38.2045 66.2373 38.2195C66.1436 38.2346 66.0472 38.2421 65.9476 38.2421H64.5854V39.4146C64.5854 39.544 64.5157 39.6087 64.3772 39.6087H63.5396C63.407 39.6087 63.3405 39.544 63.3405 39.4146V33.128C63.3405 32.9867 63.407 32.916 63.5396 32.916H65.9476ZM67.4189 35.5678C67.4189 35.3754 67.3838 35.1905 67.3146 35.0131C67.2453 34.8357 67.15 34.6764 67.0296 34.535C66.9088 34.3937 66.7639 34.2765 66.5951 34.1833C66.429 34.0901 66.2495 34.0315 66.0562 34.0074C65.9748 33.9954 65.8917 33.9864 65.8075 33.9803C65.726 33.9743 65.6414 33.9713 65.554 33.9713H64.5854V37.1597H65.889C66.1062 37.1597 66.3081 37.1192 66.4955 37.038C66.6825 36.9568 66.8438 36.8456 66.9796 36.7042C67.1154 36.5599 67.2225 36.3916 67.3012 36.1992C67.3795 36.0037 67.4189 35.7933 67.4189 35.5678Z" fill="#1B3050"/>
<path id="Vector_11" d="M83.4141 36.2664C83.4141 35.9507 83.455 35.6456 83.5365 35.3509C83.6179 35.0563 83.7341 34.7812 83.8848 34.5256C84.0359 34.2701 84.2154 34.0371 84.4236 33.8266C84.6346 33.6162 84.8688 33.4373 85.125 33.2899C85.3816 33.1396 85.6564 33.0239 85.9488 32.9427C86.2448 32.8585 86.5526 32.8164 86.8722 32.8164C87.189 32.8164 87.494 32.8585 87.7865 32.9427C88.0825 33.0239 88.3584 33.1396 88.615 33.2899C88.8712 33.4373 89.1054 33.6162 89.3164 33.8266C89.5277 34.0371 89.7072 34.2701 89.8552 34.5256C90.006 34.7812 90.1221 35.0563 90.2035 35.3509C90.2882 35.6456 90.3303 35.9507 90.3303 36.2664C90.3303 36.5851 90.2882 36.8918 90.2035 37.1864C90.1221 37.4781 90.006 37.7517 89.8552 38.0072C89.7072 38.2597 89.5277 38.4913 89.3164 38.7017C89.1054 38.9092 88.8712 39.0881 88.615 39.2385C88.3584 39.3887 88.0825 39.5044 87.7865 39.5856C87.494 39.6668 87.189 39.7075 86.8722 39.7075C86.5526 39.7075 86.2448 39.6668 85.9488 39.5856C85.6564 39.5044 85.3816 39.3887 85.125 39.2385C84.8688 39.0881 84.6346 38.9092 84.4236 38.7017C84.2154 38.4913 84.0359 38.2597 83.8848 38.0072C83.7341 37.7517 83.6179 37.4781 83.5365 37.1864C83.455 36.8918 83.4141 36.5851 83.4141 36.2664ZM84.6543 36.2664C84.6543 36.5791 84.7102 36.8722 84.8219 37.1458C84.9365 37.4164 85.0935 37.6539 85.2927 37.8584C85.4918 38.0598 85.7256 38.2191 85.9941 38.3364C86.2656 38.4537 86.5585 38.5123 86.8722 38.5123C87.1831 38.5123 87.4728 38.4537 87.7412 38.3364C88.0128 38.2191 88.2482 38.0598 88.4473 37.8584C88.6465 37.6539 88.8035 37.4164 88.9181 37.1458C89.033 36.8722 89.0901 36.5791 89.0901 36.2664C89.0901 35.9568 89.033 35.6651 88.9181 35.3915C88.8035 35.1149 88.6465 34.8759 88.4473 34.6744C88.2482 34.47 88.0128 34.3092 87.7412 34.1919C87.4728 34.0717 87.1831 34.0115 86.8722 34.0115C86.5585 34.0115 86.2656 34.0717 85.9941 34.1919C85.7256 34.3092 85.4918 34.47 85.2927 34.6744C85.0935 34.8759 84.9365 35.1149 84.8219 35.3915C84.7102 35.6651 84.6543 35.9568 84.6543 36.2664Z" fill="#1B3050"/>
<path id="Vector_12" d="M106.629 36.9113C106.629 37.1699 106.668 37.4029 106.747 37.6103C106.825 37.8148 106.934 37.9892 107.073 38.1335C107.214 38.2778 107.38 38.3891 107.57 38.4672C107.761 38.5454 107.969 38.5845 108.195 38.5845C108.43 38.5845 108.645 38.5439 108.838 38.4627C109.031 38.3815 109.195 38.2673 109.331 38.12C109.47 37.9727 109.577 37.7968 109.653 37.5923C109.728 37.3849 109.766 37.1579 109.766 36.9113V33.1096C109.766 33.0554 109.785 33.0089 109.825 32.9698C109.864 32.9307 109.914 32.9111 109.974 32.9111H110.784C110.848 32.9111 110.9 32.9307 110.942 32.9698C110.988 33.0089 111.01 33.0554 111.01 33.1096V36.9384C111.01 37.4104 110.935 37.8208 110.784 38.1696C110.633 38.5153 110.43 38.804 110.173 39.0354C109.917 39.264 109.618 39.4354 109.277 39.5495C108.936 39.6609 108.575 39.7166 108.195 39.7166C107.815 39.7166 107.454 39.6562 107.113 39.5362C106.772 39.4127 106.474 39.2338 106.217 38.9994C105.961 38.7649 105.757 38.4747 105.606 38.129C105.455 37.7832 105.38 37.3864 105.38 36.9384V33.1096C105.38 33.0615 105.396 33.0164 105.429 32.9743C105.466 32.9322 105.511 32.9111 105.565 32.9111H106.416C106.461 32.9111 106.508 32.9307 106.557 32.9698C106.605 33.0089 106.629 33.0554 106.629 33.1096V36.9113Z" fill="#1B3050"/>
<path id="Vector_13" d="M130.035 35.6125C130.035 35.3931 129.994 35.1841 129.913 34.9856C129.831 34.7872 129.717 34.6129 129.569 34.4625C129.424 34.3092 129.25 34.1874 129.048 34.0972C128.849 34.007 128.63 33.9619 128.392 33.9619H127.509V37.2631H128.428C128.645 37.2631 128.85 37.221 129.044 37.1368C129.24 37.0527 129.41 36.9369 129.555 36.7896C129.703 36.6423 129.819 36.4679 129.904 36.2664C129.991 36.065 130.035 35.847 130.035 35.6125ZM127.744 32.9111C127.914 32.9111 128.081 32.9142 128.247 32.9202C128.413 32.9232 128.58 32.9277 128.749 32.9337C129.087 32.9607 129.407 33.0494 129.709 33.1998C130.014 33.3471 130.279 33.541 130.505 33.7815C130.732 34.0191 130.912 34.2956 131.044 34.6113C131.177 34.924 131.243 35.2623 131.243 35.626C131.243 35.9778 131.179 36.31 131.049 36.6227C130.922 36.9354 130.746 37.2135 130.519 37.457C130.296 37.6976 130.032 37.8945 129.727 38.0478C129.425 38.2011 129.101 38.2929 128.754 38.3229C128.673 38.3289 128.591 38.3349 128.51 38.3409C128.428 38.344 128.345 38.3454 128.26 38.3454H127.509V39.4099C127.509 39.5421 127.44 39.6083 127.301 39.6083H126.464C126.331 39.6083 126.265 39.5421 126.265 39.4099V33.1231C126.265 33.057 126.281 33.0058 126.314 32.9698C126.35 32.9307 126.402 32.9111 126.468 32.9111H127.744Z" fill="#1B3050"/>
<path id="Vector_14" d="M156.256 3.52941L157.831 0H160.192L158.618 3.52941H156.256Z" fill="#1B3050"/>
</g>
</svg>
