<svg width="122" height="40" viewBox="0 0 122 40" fill="none" xmlns="http://www.w3.org/2000/svg">
<path d="M15.1797 0.42473L16.6032 14.518C16.6322 14.8173 16.487 14.9621 16.1771 14.9621H14.2986C14.0274 14.9621 13.8822 14.8269 13.8531 14.547L13.1559 7.3845L8.78881 14.7787C8.58546 15.0779 8.57578 15.1262 8.31433 15.1648H8.30465C8.0432 15.1262 8.01415 15.0779 7.82049 14.7787L3.46304 7.39416L2.75616 14.547C2.71743 14.8462 2.58186 14.9621 2.31073 14.9621H0.432189C0.112642 14.9621 -0.0326058 14.8173 0.00612706 14.518L1.42956 0.42473C1.44893 0.183406 1.57481 0.0675706 1.79752 0.0675706H1.84594C2.08802 0.0675706 2.13644 0.202712 2.26232 0.405424L8.30465 10.6279L14.347 0.405424C14.4632 0.212365 14.531 0.0579177 14.7634 0.0675706H14.8021C15.0248 0.0675706 15.1507 0.183406 15.1797 0.42473Z" fill="#1E4689"/>
<path d="M18.6227 11.4677C17.9449 10.319 17.606 9.04481 17.606 7.64513C17.606 6.24546 17.9449 4.97127 18.6227 3.80326C19.2908 2.64491 20.2108 1.72788 21.3824 1.06182C22.5541 0.395771 23.8323 0.0675706 25.2363 0.0675706C26.6404 0.0675706 27.9186 0.395771 29.0903 1.06182C30.2619 1.72788 31.1818 2.64491 31.8597 3.80326C32.5278 4.97127 32.8667 6.24546 32.8667 7.64513C32.8667 9.04481 32.5278 10.319 31.8597 11.4677C31.1818 12.6261 30.2619 13.5334 29.0903 14.1898C27.9186 14.8559 26.6404 15.1841 25.2363 15.1841C23.8323 15.1841 22.5541 14.8559 21.3824 14.1898C20.2108 13.5334 19.2908 12.6261 18.6227 11.4677ZM20.3366 7.64513C20.3366 9.0062 20.8111 10.1452 21.7601 11.0719C22.6993 11.9986 23.8613 12.462 25.2363 12.462C26.6114 12.462 27.7733 11.9986 28.7223 11.0719C29.6616 10.1452 30.1361 9.0062 30.1361 7.64513C30.1942 4.96161 27.9186 2.73178 25.2363 2.78005C22.5541 2.73178 20.2785 4.96161 20.3366 7.64513Z" fill="#1E4689"/>
<path d="M44.3661 0.289588H46.4577C46.7676 0.289588 46.8934 0.4923 46.7676 0.772236L40.4541 14.7207C40.3089 15.02 40.1249 15.1744 39.8828 15.1744H39.8441C39.5826 15.1744 39.389 15.02 39.2631 14.7207L32.9593 0.781889C32.8334 0.482647 32.969 0.289588 33.2885 0.289588H35.351C35.5931 0.289588 35.7577 0.415077 35.8643 0.6564L39.8731 9.91358L43.8723 0.6564C43.9788 0.415077 44.1434 0.289588 44.3661 0.289588Z" fill="#1E4689"/>
<path d="M57.4633 11.4291C57.7053 11.265 57.9958 11.265 58.1217 11.4484L59.2256 13.128C59.3321 13.2728 59.2256 13.5238 59.0223 13.6782C58.4413 14.1319 57.7441 14.4891 56.9307 14.769C56.1076 15.0489 55.3233 15.1841 54.568 15.1841C53.5125 15.1841 52.5055 14.991 51.5565 14.5953C50.5979 14.1995 49.7845 13.6686 49.097 13.0025C48.4095 12.3365 47.8672 11.5353 47.4702 10.5989C47.0635 9.6626 46.8601 8.678 46.8601 7.63548C46.8601 6.59296 47.0635 5.59871 47.4702 4.66237C47.8672 3.72604 48.4095 2.92484 49.097 2.24914C49.7845 1.58308 50.5979 1.05217 51.5565 0.6564C52.5055 0.26063 53.5125 0.0675706 54.568 0.0675706C55.3233 0.0675706 56.1173 0.202712 56.9501 0.482647C57.7731 0.762583 58.4897 1.12939 59.0804 1.60239C59.3128 1.77614 59.3612 1.95955 59.2256 2.16226L58.1217 3.82257C58.0055 4.00597 57.7538 4.03493 57.4923 3.84187C56.6886 3.15651 55.5847 2.78005 54.568 2.78005C51.8567 2.72213 49.5327 4.98092 49.5908 7.63548C49.5908 8.98689 50.075 10.1259 51.0433 11.0623C52.0116 11.9986 53.1833 12.462 54.568 12.462C55.5363 12.462 56.6596 12.0758 57.4633 11.4291Z" fill="#1E4689"/>
<path d="M71.7902 0.270283H73.8817C74.1045 0.270283 74.211 0.376465 74.211 0.598483V14.6435C74.211 14.8559 74.1045 14.9621 73.8817 14.9621H71.7902C71.5868 14.9621 71.4803 14.8559 71.4803 14.6435V10.29H64.1598V14.6435C64.1598 14.8559 64.0533 14.9621 63.8402 14.9621H61.7487C61.526 14.9621 61.4194 14.8559 61.4194 14.6435V0.598483C61.4194 0.376465 61.526 0.270283 61.7487 0.270283H63.8402C64.0339 0.270283 64.1598 0.395771 64.1598 0.598483V7.89611H71.4803V0.598483C71.4803 0.376465 71.5868 0.270283 71.7902 0.270283Z" fill="#1E4689"/>
<path d="M83.338 0.482647L89.6224 14.4794C89.7483 14.7594 89.6224 14.9717 89.3029 14.9717H87.221C86.9983 14.9717 86.8336 14.8462 86.7271 14.5953L86.1364 13.1666H79.3776L78.7869 14.5856C78.6804 14.8366 78.5061 14.9621 78.2834 14.9621H76.2111C75.8916 14.9621 75.756 14.769 75.8819 14.4698L82.147 0.472994C82.2632 0.222018 82.4375 0.0965295 82.6795 0.0965295H82.8054C83.0475 0.0965295 83.2218 0.222018 83.338 0.482647ZM82.757 4.99057L80.3362 10.8306H85.1681L82.757 4.99057Z" fill="#1E4689"/>
<path d="M101.984 0.270283H104.066C104.288 0.270283 104.395 0.376465 104.395 0.58883V14.6918C104.395 14.9717 104.22 15.1455 104.017 15.1455H103.998C103.862 15.1455 103.794 15.1069 103.688 15.0393C103.601 14.991 103.504 14.8752 103.397 14.798L94.0337 5.93656V14.6435C94.0337 14.8559 93.9272 14.9621 93.7142 14.9621H91.6226C91.3999 14.9621 91.2934 14.8559 91.2934 14.6435V0.521259C91.2934 0.279936 91.4483 0.0965295 91.6516 0.0965295H91.6904C91.7969 0.0965295 91.9228 0.1641 92.0099 0.231671C92.0486 0.270283 92.1939 0.405424 92.2326 0.444036L101.664 9.34405V0.58883C101.664 0.376465 101.771 0.270283 101.984 0.270283Z" fill="#1E4689"/>
<path d="M106.714 1.32245C106.714 0.955642 106.84 0.646747 107.102 0.386118C107.354 0.125488 107.673 0 108.051 0C108.467 0 108.806 0.1641 109.087 0.501953C109.368 0.839806 109.503 1.27419 109.503 1.7858C109.503 2.83797 109.222 3.6102 108.593 4.5755C108.477 4.72994 108.264 4.77821 108.109 4.69133L107.538 4.39209C107.383 4.30521 107.373 4.13146 107.518 3.88049C107.896 3.27235 108.089 2.87658 108.089 2.69317C108.089 2.64491 108.07 2.59664 108.041 2.52907C107.973 2.55803 107.896 2.57734 107.789 2.57734C107.179 2.57734 106.714 2.02712 106.714 1.32245Z" fill="#1E4689"/>
<path d="M116.723 15.1841C115.609 15.1841 114.544 14.9621 113.508 14.4987C112.472 14.045 111.687 13.4562 111.155 12.7322C110.99 12.5295 111.019 12.3172 111.242 12.1048L112.501 10.8499C112.685 10.6762 112.898 10.7051 113.15 10.9368C113.595 11.4098 114.137 11.8056 114.767 12.1144C115.396 12.4233 116.016 12.5778 116.616 12.5778C118.253 12.5778 119.173 11.9117 119.173 10.763C119.173 10.2804 118.93 9.88462 118.456 9.57572C117.981 9.26683 117.187 8.91932 116.074 8.54286C114.592 8.05056 113.643 7.59687 112.84 6.92116C112.036 6.24546 111.668 5.35739 111.668 4.19903C111.668 2.9538 112.123 1.9499 113.033 1.19697C113.944 0.444036 115.164 0.0675706 116.694 0.0675706C117.526 0.0675706 118.33 0.222018 119.095 0.521259C119.86 0.830153 120.451 1.23558 120.877 1.72788C121.099 1.9692 121.109 2.20087 120.906 2.4422L119.889 3.60055C119.579 3.89979 119.395 3.87083 119.047 3.63916C118.398 3.03103 117.43 2.66421 116.568 2.66421C115.183 2.66421 114.35 3.29166 114.35 4.22799C114.399 4.9037 114.805 5.34773 115.628 5.7435C115.919 5.8883 116.2 6.01379 116.461 6.11032C116.723 6.2165 117.062 6.33233 117.459 6.46747C118.233 6.7088 118.717 6.88255 119.386 7.18179C120.054 7.49069 120.48 7.77062 120.954 8.19535C121.622 8.81314 121.971 9.60468 122 10.7244C122 12.0758 121.516 13.157 120.538 13.9678C119.56 14.7787 118.282 15.1841 116.723 15.1841Z" fill="#1E4689"/>
<path d="M32.8365 32.3057H37.6297C37.8234 32.3057 37.9492 32.4312 37.9492 32.6339V38.1457C37.9492 38.3484 37.8718 38.5125 37.7169 38.6187C37.1455 39.0145 36.3999 39.3427 35.4994 39.6033C34.5892 39.8639 33.7274 39.9991 32.9043 39.9991C31.4905 39.9991 30.193 39.6709 29.0116 39.0048C27.8303 38.3388 26.9007 37.4314 26.2229 36.273C25.5354 35.1147 25.1964 33.8405 25.1964 32.4408C25.1964 31.3886 25.3998 30.404 25.7968 29.4677C26.1938 28.5314 26.7361 27.7302 27.4236 27.0641C28.1111 26.3981 28.9245 25.8672 29.8831 25.4714C30.8321 25.0756 31.8391 24.8826 32.8946 24.8826C33.6789 24.8826 34.4923 25.008 35.3154 25.2687C36.1385 25.5293 36.8454 25.8961 37.4167 26.3788C37.6007 26.5332 37.6394 26.7842 37.5135 26.9676L36.4484 28.5796C36.3031 28.7824 36.0513 28.8017 35.8577 28.6376C35.0443 27.9329 33.9017 27.5854 32.9043 27.5854C31.5196 27.5854 30.3382 28.0584 29.3796 28.9947C28.421 29.931 27.9368 31.0798 27.9368 32.4408C27.9368 34.2556 28.818 35.8483 30.3479 36.7364C31.1129 37.1804 31.965 37.4024 32.9043 37.4024C33.2819 37.4024 33.7177 37.3349 34.2018 37.1901C34.6763 37.0453 35.0637 36.8715 35.3445 36.6688V34.5838H32.8365C32.6332 34.5838 32.5266 34.4776 32.5266 34.2652V32.6339C32.5266 32.4119 32.6332 32.3057 32.8365 32.3057Z" fill="#1E4689"/>
<path d="M49.6326 35.4332L51.608 39.2751C51.7533 39.555 51.6371 39.7771 51.3272 39.7771H49.1969C49.0129 39.7771 48.8096 39.6226 48.7031 39.4199L47.1828 36.3116C46.8729 36.3599 46.534 36.3792 46.1757 36.3792H43.1352V39.3523C43.1352 39.613 42.9512 39.7771 42.6898 39.7771H40.8306C40.5691 39.7771 40.3948 39.613 40.3948 39.3523V25.5197C40.3948 25.2783 40.5691 25.1046 40.8306 25.1046H46.1757C47.8993 25.1046 49.3228 25.6355 50.446 26.707C51.5596 27.7784 52.1212 29.1395 52.1212 30.7902C52.1212 32.7594 51.1916 34.4293 49.6326 35.4332ZM43.1352 34.1011H46.0014C46.9891 34.1011 47.8025 33.7922 48.4416 33.1648C49.071 32.547 49.3906 31.7458 49.3906 30.7709C49.3906 29.8249 49.071 29.043 48.4222 28.4155C47.7735 27.7977 46.9698 27.4889 46.0014 27.4889H43.1352V34.1011Z" fill="#1E4689"/>
<path d="M54.6346 36.2827C53.9568 35.134 53.6179 33.8598 53.6179 32.4601C53.6179 31.0604 53.9568 29.7863 54.6346 28.6182C55.3027 27.4599 56.2227 26.5429 57.3943 25.8768C58.566 25.2108 59.8442 24.8826 61.2482 24.8826C62.6523 24.8826 63.9305 25.2108 65.1022 25.8768C66.2738 26.5429 67.1937 27.4599 67.8716 28.6182C68.5397 29.7863 68.8786 31.0604 68.8786 32.4601C68.8786 33.8598 68.5397 35.134 67.8716 36.2827C67.1937 37.441 66.2738 38.3484 65.1022 39.0048C63.9305 39.6709 62.6523 39.9991 61.2482 39.9991C59.8442 39.9991 58.566 39.6709 57.3943 39.0048C56.2227 38.3484 55.3027 37.441 54.6346 36.2827ZM56.3485 32.4601C56.3485 33.8212 56.823 34.9602 57.772 35.8869C58.7112 36.8136 59.8732 37.2769 61.2482 37.2769C62.6233 37.2769 63.7852 36.8136 64.7342 35.8869C65.6735 34.9602 66.1479 33.8212 66.1479 32.4601C66.2061 29.7766 63.9305 27.5468 61.2482 27.595C58.566 27.5468 56.2904 29.7766 56.3485 32.4601Z" fill="#1E4689"/>
<path d="M73.3771 25.4231V33.7633C73.3771 34.7961 73.7063 35.6456 74.3551 36.3213C75.0038 36.997 75.8366 37.3349 76.8437 37.3349C77.841 37.3349 78.6738 36.997 79.3322 36.3213C79.981 35.6456 80.3102 34.7961 80.3102 33.7633V25.4231C80.3102 25.2011 80.4264 25.0853 80.6588 25.0853H82.6826C82.9247 25.0853 83.0409 25.2011 83.0409 25.4231V33.7729C83.099 37.3928 80.4361 40.057 76.8437 39.9991C75.0135 39.9991 73.5223 39.4199 72.37 38.2519C71.2177 37.0839 70.6464 35.578 70.6464 33.7343V25.4231C70.6464 25.2011 70.7529 25.0853 70.9659 25.0853H73.0575C73.2705 25.0853 73.3771 25.2011 73.3771 25.4231Z" fill="#1E4689"/>
<path d="M90.3862 25.1046C94.0852 25.0467 96.9224 27.6047 96.8643 30.9157C96.9224 34.2459 94.0852 36.7171 90.3862 36.6688H88.4496V39.3523C88.4496 39.613 88.2753 39.7771 88.0041 39.7771H86.145C85.8738 39.7771 85.7092 39.613 85.7092 39.3523V25.5293C85.7092 25.2687 85.8835 25.1046 86.145 25.1046H90.3862ZM88.4496 34.2749H90.2022C91.3545 34.2749 92.2938 33.9563 93.0297 33.3289C93.7657 32.7014 94.1336 31.8906 94.1336 30.8963C94.1336 29.9117 93.7657 29.1009 93.0297 28.4541C92.2841 27.8171 91.3449 27.4985 90.2022 27.4985H88.4496V34.2749Z" fill="#1E4689"/>
</svg>
