<svg width="41" height="40" viewBox="0 0 41 40" fill="none" xmlns="http://www.w3.org/2000/svg">
<g clip-path="url(#clip0_628_5035)">
<path d="M20.5 0C16.5234 0.00527509 12.7111 1.58732 9.89922 4.39922C7.08732 7.21113 5.50528 11.0234 5.5 15C5.5 25.7688 19.475 39.2563 20.0687 39.825C20.1842 39.9373 20.3389 40 20.5 40C20.6611 40 20.8158 39.9373 20.9312 39.825C21.525 39.2563 35.5 25.7688 35.5 15C35.4947 11.0234 33.9127 7.21113 31.1008 4.39922C28.2889 1.58732 24.4766 0.00527509 20.5 0ZM20.5 21.875C19.1403 21.875 17.811 21.4718 16.6805 20.7164C15.5499 19.9609 14.6687 18.8872 14.1483 17.631C13.628 16.3747 13.4918 14.9924 13.7571 13.6588C14.0224 12.3251 14.6772 11.1001 15.6386 10.1386C16.6001 9.17716 17.8251 8.52238 19.1588 8.2571C20.4924 7.99183 21.8747 8.12798 23.1309 8.64833C24.3872 9.16868 25.4609 10.0499 26.2164 11.1805C26.9718 12.311 27.375 13.6403 27.375 15C27.3739 16.823 26.6492 18.5711 25.3602 19.8602C24.0711 21.1492 22.323 21.8739 20.5 21.875Z" fill="#394E6E"/>
</g>
<defs>
<clipPath id="clip0_628_5035">
<rect width="40" height="40" fill="white" transform="translate(0.5)"/>
</clipPath>
</defs>
</svg>
