<svg width="24" height="24" viewBox="0 0 24 24" fill="none" xmlns="http://www.w3.org/2000/svg">
<path d="M11.5387 3.69843C11.5366 3.63649 11.5469 3.57474 11.5691 3.51687C11.5913 3.459 11.6249 3.40619 11.6679 3.3616C11.711 3.31701 11.7626 3.28154 11.8196 3.25732C11.8767 3.2331 11.938 3.22061 12 3.22061C12.062 3.22061 12.1233 3.2331 12.1804 3.25732C12.2374 3.28154 12.289 3.31701 12.3321 3.3616C12.3751 3.40619 12.4087 3.459 12.4309 3.51687C12.4531 3.57474 12.4634 3.63649 12.4613 3.69843L12.4618 11.0692L19.8326 11.0697C19.9521 11.074 20.0653 11.1244 20.1483 11.2105C20.2314 11.2965 20.2778 11.4114 20.2778 11.531C20.2778 11.6506 20.2314 11.7655 20.1483 11.8515C20.0653 11.9376 19.9521 11.988 19.8326 11.9923L12.4618 11.9928L12.4613 19.3636C12.457 19.4831 12.4066 19.5963 12.3205 19.6793C12.2345 19.7624 12.1196 19.8088 12 19.8088C11.8804 19.8088 11.7655 19.7624 11.6795 19.6793C11.5934 19.5963 11.543 19.4831 11.5387 19.3636L11.5382 11.9928L4.16743 11.9923C4.04792 11.988 3.93471 11.9376 3.85165 11.8515C3.76859 11.7655 3.72218 11.6506 3.72218 11.531C3.72218 11.4114 3.76859 11.2965 3.85165 11.2105C3.93471 11.1244 4.04792 11.074 4.16743 11.0697L11.5382 11.0692L11.5387 3.69843Z" fill="#8C725B"/>
</svg>
