<svg width="40" height="40" viewBox="0 0 40 40" fill="none" xmlns="http://www.w3.org/2000/svg">
<g clip-path="url(#clip0_697_9915)">
<path d="M2.24742 33.1647C1.95682 33.4599 1.96051 33.9347 2.25567 34.2254C2.55083 34.516 3.02569 34.5123 3.3163 34.2171L2.24742 33.1647ZM37.5307 11.2914C37.521 10.8773 37.1775 10.5495 36.7634 10.5592L30.0152 10.7173C29.6011 10.727 29.2733 11.0705 29.283 11.4846C29.2927 11.8987 29.6363 12.2266 30.0504 12.2169L36.0487 12.0763L36.1892 18.0747C36.1989 18.4888 36.5425 18.8166 36.9566 18.8069C37.3707 18.7972 37.6985 18.4536 37.6888 18.0395L37.5307 11.2914ZM20.8142 26.1723L21.2854 25.5888L20.8142 26.1723ZM22.7158 26.049L22.1732 25.5312L22.7158 26.049ZM15.8841 22.1916L15.4129 22.7751L15.8841 22.1916ZM3.3163 34.2171L14.5323 22.8253L13.4634 21.773L2.24742 33.1647L3.3163 34.2171ZM15.4129 22.7751L20.3431 26.7559L21.2854 25.5888L16.3553 21.6081L15.4129 22.7751ZM23.2584 26.5668L37.3235 11.8267L36.2383 10.7912L22.1732 25.5312L23.2584 26.5668ZM20.3431 26.7559C21.2161 27.4608 22.4838 27.3785 23.2584 26.5668L22.1732 25.5312C21.9373 25.7784 21.5512 25.8035 21.2854 25.5888L20.3431 26.7559ZM14.5323 22.8253C14.7693 22.5847 15.1501 22.5629 15.4129 22.7751L16.3553 21.6081C15.4923 20.9113 14.2416 20.9826 13.4634 21.773L14.5323 22.8253Z" fill="#00B0B5"/>
<path d="M15 4.896C13.6608 4.896 12.3517 5.2931 11.2383 6.03709C10.1248 6.78108 9.257 7.83854 8.74453 9.07574C8.23206 10.313 8.09797 11.6743 8.35923 12.9878C8.62048 14.3012 9.26534 15.5076 10.2123 16.4545C11.1592 17.4014 12.3656 18.0463 13.679 18.3076C14.9925 18.5688 16.3538 18.4347 17.591 17.9223C18.8283 17.4098 19.8857 16.542 20.6297 15.4285C21.3737 14.315 21.7708 13.006 21.7708 11.6668C21.7689 9.87167 21.0549 8.15059 19.7856 6.88122C18.5162 5.61185 16.7951 4.89789 15 4.896ZM15 17.396C13.8668 17.396 12.7592 17.06 11.817 16.4305C10.8749 15.8009 10.1405 14.9062 9.7069 13.8593C9.27328 12.8124 9.15982 11.6605 9.38088 10.5491C9.60194 9.43778 10.1476 8.41694 10.9488 7.6157C11.7501 6.81446 12.7709 6.26881 13.8823 6.04775C14.9936 5.82669 16.1456 5.94014 17.1924 6.37377C18.2393 6.8074 19.1341 7.54172 19.7636 8.48387C20.3931 9.42603 20.7291 10.5337 20.7291 11.6668C20.7274 13.1858 20.1232 14.642 19.0492 15.7161C17.9751 16.7901 16.5189 17.3943 15 17.396ZM17.6041 12.9689C17.6041 13.4524 17.4121 13.916 17.0702 14.2579C16.7283 14.5998 16.2647 14.7918 15.7812 14.7918H15.5208V15.3127C15.5208 15.4508 15.4659 15.5833 15.3682 15.6809C15.2706 15.7786 15.1381 15.8335 15 15.8335C14.8618 15.8335 14.7294 15.7786 14.6317 15.6809C14.534 15.5833 14.4791 15.4508 14.4791 15.3127V14.7918H13.4375C13.2993 14.7918 13.1669 14.737 13.0692 14.6393C12.9715 14.5416 12.9166 14.4091 12.9166 14.271C12.9166 14.1329 12.9715 14.0004 13.0692 13.9027C13.1669 13.805 13.2993 13.7502 13.4375 13.7502H15.7812C15.9884 13.7502 16.1871 13.6679 16.3336 13.5213C16.4802 13.3748 16.5625 13.1761 16.5625 12.9689C16.5625 12.7617 16.4802 12.563 16.3336 12.4165C16.1871 12.27 15.9884 12.1877 15.7812 12.1877H14.2187C13.7352 12.1877 13.2716 11.9956 12.9297 11.6537C12.5879 11.3119 12.3958 10.8482 12.3958 10.3647C12.3958 9.88128 12.5879 9.41761 12.9297 9.07575C13.2716 8.73389 13.7352 8.54183 14.2187 8.54183H14.4791V8.021C14.4791 7.88286 14.534 7.75039 14.6317 7.65271C14.7294 7.55504 14.8618 7.50016 15 7.50016C15.1381 7.50016 15.2706 7.55504 15.3682 7.65271C15.4659 7.75039 15.5208 7.88286 15.5208 8.021V8.54183H16.5625C16.7006 8.54183 16.8331 8.5967 16.9307 8.69438C17.0284 8.79205 17.0833 8.92453 17.0833 9.06266C17.0833 9.2008 17.0284 9.33327 16.9307 9.43095C16.8331 9.52862 16.7006 9.5835 16.5625 9.5835H14.2187C14.0115 9.5835 13.8128 9.66581 13.6663 9.81232C13.5198 9.95883 13.4375 10.1575 13.4375 10.3647C13.4375 10.5719 13.5198 10.7707 13.6663 10.9172C13.8128 11.0637 14.0115 11.146 14.2187 11.146H15.7812C16.2647 11.146 16.7283 11.3381 17.0702 11.6799C17.4121 12.0218 17.6041 12.4854 17.6041 12.9689Z" fill="#00B0B5"/>
</g>
<defs>
<clipPath id="clip0_697_9915">
<rect width="40" height="40" fill="white"/>
</clipPath>
</defs>
</svg>
