<svg width="24" height="24" viewBox="0 0 24 24" fill="none" xmlns="http://www.w3.org/2000/svg">
<path d="M5.63508 19.0279C5.21162 19.0279 5 18.373 5 17.0625C5 15.7522 5.36283 13.9934 6.0885 11.7859C6.81417 9.57852 7.64057 7.73415 8.56795 6.25261C9.49485 4.77108 10.2408 4.0302 10.8053 4.0302C11.2484 4.01038 11.4706 4.42323 11.4706 5.27015C11.4706 6.11661 11.3293 7.27611 11.0474 8.74727C10.7648 10.2189 10.392 11.7359 9.92846 13.2979C9.46466 14.8604 8.84457 16.2059 8.06888 17.3347C7.29295 18.464 6.48177 19.0279 5.63508 19.0279ZM18.4557 4C18.8186 4.08091 19 4.46403 19 5.1489C19 5.83469 18.7882 7.21018 18.3649 9.27631C17.9417 11.3429 17.3112 13.4339 16.4751 15.5505C15.6384 17.6671 14.7767 18.7254 13.8899 18.7254C13.1237 18.7254 12.741 18.2718 12.741 17.3647C12.741 15.6109 13.048 13.681 13.6633 11.5743C14.2781 9.4681 15.0393 7.67883 15.9463 6.2072C16.8532 4.73604 17.6893 4 18.4557 4Z" fill="#BFA58E"/>
</svg>
