<svg width="24" height="24" viewBox="0 0 24 24" fill="none" xmlns="http://www.w3.org/2000/svg">
<path d="M12.5 2C10.4233 2 8.39323 2.58649 6.66652 3.6853C4.9398 4.78412 3.59399 6.3459 2.79927 8.17316C2.00455 10.0004 1.79661 12.0111 2.20176 13.9509C2.6069 15.8907 3.60693 17.6725 5.07538 19.0711C6.54383 20.4696 8.41475 21.422 10.4516 21.8078C12.4884 22.1937 14.5996 21.9957 16.5182 21.2388C18.4368 20.4819 20.0767 19.2002 21.2304 17.5557C22.3842 15.9112 23 13.9778 23 12C22.9969 9.34873 21.8897 6.80688 19.9212 4.93215C17.9528 3.05741 15.2838 2.00291 12.5 2ZM12.5 21.061C11.8354 20.452 10.085 18.62 9.21665 15.6H15.7834C14.915 18.62 13.1647 20.452 12.5 21.061ZM9.0161 14.8C8.62131 12.9523 8.62131 11.0477 9.0161 9.2H15.9839C16.3787 11.0477 16.3787 12.9523 15.9839 14.8H9.0161ZM12.5 2.939C13.1647 3.548 14.915 5.38 15.7834 8.4H9.21665C10.085 5.38 11.8354 3.548 12.5 2.939ZM16.8481 9.2H21.7022C22.3126 11.0214 22.3126 12.9786 21.7022 14.8H16.8481C17.2106 12.9493 17.2106 11.0507 16.8481 9.2ZM21.3893 8.4H16.6643C16.1343 6.34219 15.0819 4.43981 13.5994 2.86C15.2953 3.04765 16.909 3.65889 18.277 4.63178C19.645 5.60467 20.7187 6.90465 21.3893 8.4ZM11.4017 2.86C9.91919 4.43981 8.86672 6.34219 8.33675 8.4H3.61175C4.28235 6.90465 5.35605 5.60467 6.72406 4.63178C8.09207 3.65889 9.70578 3.04765 11.4017 2.86ZM3.2978 9.2H8.15195C7.78936 11.0507 7.78936 12.9493 8.15195 14.8H3.2978C2.68742 12.9786 2.68742 11.0214 3.2978 9.2ZM3.6128 15.6H8.3378C8.86777 17.6578 9.92024 19.5602 11.4028 21.14C9.70646 20.9527 8.09231 20.3416 6.7239 19.3687C5.3555 18.3958 4.28148 17.0956 3.6107 15.6H3.6128ZM13.6004 21.14C15.0822 19.56 16.1339 17.6576 16.6633 15.6H21.3883C20.7176 17.0953 19.644 18.3953 18.2759 19.3682C16.9079 20.3411 15.2942 20.9523 13.5983 21.14H13.6004Z" fill="#00B0B5"/>
<rect x="1.45" y="2.45" width="11.1" height="19.1" rx="1.55" fill="white" stroke="#00B0B5" stroke-width="0.9"/>
<path d="M7.9375 11.6875H7.3125V9.1875H7.625C7.95652 9.1875 8.27446 9.3192 8.50888 9.55362C8.7433 9.78804 8.875 10.106 8.875 10.4375C8.875 10.5204 8.90792 10.5999 8.96653 10.6585C9.02513 10.7171 9.10462 10.75 9.1875 10.75C9.27038 10.75 9.34987 10.7171 9.40847 10.6585C9.46708 10.5999 9.5 10.5204 9.5 10.4375C9.49948 9.94038 9.30177 9.46376 8.95025 9.11225C8.59874 8.76073 8.12212 8.56302 7.625 8.5625H7.3125V7.9375C7.3125 7.85462 7.27958 7.77513 7.22097 7.71653C7.16237 7.65792 7.08288 7.625 7 7.625C6.91712 7.625 6.83763 7.65792 6.77903 7.71653C6.72042 7.77513 6.6875 7.85462 6.6875 7.9375V8.5625H6.375C5.87772 8.5625 5.40081 8.76004 5.04917 9.11167C4.69754 9.46331 4.5 9.94022 4.5 10.4375C4.5 10.9348 4.69754 11.4117 5.04917 11.7633C5.40081 12.115 5.87772 12.3125 6.375 12.3125H6.6875V14.8125H6.0625C5.73098 14.8125 5.41304 14.6808 5.17862 14.4464C4.9442 14.212 4.8125 13.894 4.8125 13.5625C4.8125 13.4796 4.77958 13.4001 4.72097 13.3415C4.66237 13.2829 4.58288 13.25 4.5 13.25C4.41712 13.25 4.33763 13.2829 4.27903 13.3415C4.22042 13.4001 4.1875 13.4796 4.1875 13.5625C4.18802 14.0596 4.38573 14.5362 4.73725 14.8878C5.08876 15.2393 5.56538 15.437 6.0625 15.4375H6.6875V16.0625C6.6875 16.1454 6.72042 16.2249 6.77903 16.2835C6.83763 16.3421 6.91712 16.375 7 16.375C7.08288 16.375 7.16237 16.3421 7.22097 16.2835C7.27958 16.2249 7.3125 16.1454 7.3125 16.0625V15.4375H7.9375C8.43478 15.4375 8.91169 15.24 9.26333 14.8883C9.61496 14.5367 9.8125 14.0598 9.8125 13.5625C9.8125 13.0652 9.61496 12.5883 9.26333 12.2367C8.91169 11.885 8.43478 11.6875 7.9375 11.6875ZM6.375 11.6875C6.04348 11.6875 5.72554 11.5558 5.49112 11.3214C5.2567 11.087 5.125 10.769 5.125 10.4375C5.125 10.106 5.2567 9.78804 5.49112 9.55362C5.72554 9.3192 6.04348 9.1875 6.375 9.1875H6.6875V11.6875H6.375ZM7.9375 14.8125H7.3125V12.3125H7.9375C8.26902 12.3125 8.58696 12.4442 8.82138 12.6786C9.0558 12.913 9.1875 13.231 9.1875 13.5625C9.1875 13.894 9.0558 14.212 8.82138 14.4464C8.58696 14.6808 8.26902 14.8125 7.9375 14.8125Z" fill="#00B0B5"/>
</svg>
