<svg width="24" height="25" viewBox="0 0 24 25" fill="none" xmlns="http://www.w3.org/2000/svg">
<g clip-path="url(#clip0_712_15787)">
<path d="M18.3125 7.22982H17.7708V5.06315H18.0417C18.329 5.06315 18.6045 5.17729 18.8077 5.38045C19.0109 5.58362 19.125 5.85917 19.125 6.14648C19.125 6.21831 19.1535 6.2872 19.2043 6.33799C19.2551 6.38878 19.324 6.41732 19.3958 6.41732C19.4677 6.41732 19.5366 6.38878 19.5873 6.33799C19.6381 6.2872 19.6667 6.21831 19.6667 6.14648C19.6662 5.71565 19.4949 5.30258 19.1902 4.99793C18.8856 4.69328 18.4725 4.52193 18.0417 4.52148H17.7708V3.97982C17.7708 3.90799 17.7423 3.8391 17.6915 3.78831C17.6407 3.73752 17.5718 3.70898 17.5 3.70898C17.4282 3.70898 17.3593 3.73752 17.3085 3.78831C17.2577 3.8391 17.2292 3.90799 17.2292 3.97982V4.52148H16.9583C16.5274 4.52148 16.114 4.69269 15.8093 4.99744C15.5045 5.30218 15.3333 5.71551 15.3333 6.14648C15.3333 6.57746 15.5045 6.99079 15.8093 7.29553C16.114 7.60028 16.5274 7.77148 16.9583 7.77148H17.2292V9.93815H16.6875C16.4002 9.93815 16.1246 9.82401 15.9215 9.62085C15.7183 9.41769 15.6042 9.14214 15.6042 8.85482C15.6042 8.78299 15.5756 8.7141 15.5248 8.66331C15.4741 8.61252 15.4052 8.58398 15.3333 8.58398C15.2615 8.58398 15.1926 8.61252 15.1418 8.66331C15.091 8.7141 15.0625 8.78299 15.0625 8.85482C15.0629 9.28566 15.2343 9.69872 15.5389 10.0034C15.8436 10.308 16.2567 10.4794 16.6875 10.4798H17.2292V11.0215C17.2292 11.0933 17.2577 11.1622 17.3085 11.213C17.3593 11.2638 17.4282 11.2923 17.5 11.2923C17.5718 11.2923 17.6407 11.2638 17.6915 11.213C17.7423 11.1622 17.7708 11.0933 17.7708 11.0215V10.4798H18.3125C18.7435 10.4798 19.1568 10.3086 19.4615 10.0039C19.7663 9.69912 19.9375 9.28579 19.9375 8.85482C19.9375 8.42384 19.7663 8.01052 19.4615 7.70577C19.1568 7.40102 18.7435 7.22982 18.3125 7.22982ZM16.9583 7.22982C16.671 7.22982 16.3955 7.11568 16.1923 6.91252C15.9891 6.70935 15.875 6.4338 15.875 6.14648C15.875 5.85917 15.9891 5.58362 16.1923 5.38045C16.3955 5.17729 16.671 5.06315 16.9583 5.06315H17.2292V7.22982H16.9583ZM18.3125 9.93815H17.7708V7.77148H18.3125C18.5998 7.77148 18.8754 7.88562 19.0785 8.08879C19.2817 8.29195 19.3958 8.5675 19.3958 8.85482C19.3958 9.14214 19.2817 9.41769 19.0785 9.62085C18.8754 9.82401 18.5998 9.93815 18.3125 9.93815Z" fill="#00B0B5"/>
</g>
<circle cx="17.5" cy="7.5" r="6.05" stroke="#00B0B5" stroke-width="0.9"/>
<circle cx="8.5" cy="15.5" r="8.05" fill="white" stroke="#00B0B5" stroke-width="0.9"/>
<path d="M12.678 19.2563C12.7032 19.2859 12.7226 19.3205 12.7348 19.358C12.7471 19.3955 12.752 19.4353 12.7493 19.4748C12.7466 19.5144 12.7363 19.5529 12.7191 19.5883C12.7019 19.6236 12.678 19.655 12.649 19.6805C12.62 19.706 12.5864 19.7252 12.5501 19.7369C12.5139 19.7485 12.4758 19.7525 12.4381 19.7485C12.4003 19.7445 12.3638 19.7326 12.3305 19.7135C12.2972 19.6945 12.268 19.6686 12.2445 19.6375C11.2759 18.4322 9.94379 17.7681 8.49454 17.7681C7.04529 17.7681 5.71362 18.4322 4.74462 19.6375C4.69554 19.695 4.62698 19.7302 4.55349 19.7357C4.48 19.7411 4.40736 19.7165 4.35097 19.6669C4.29459 19.6173 4.25889 19.5467 4.25145 19.4701C4.24401 19.3934 4.26541 19.3168 4.31112 19.2563C5.05393 18.3315 5.99176 17.6931 7.03065 17.3859C6.41679 17.0444 5.92977 16.4981 5.64708 15.8338C5.36438 15.1696 5.30224 14.4255 5.47055 13.7201C5.63885 13.0146 6.02793 12.3883 6.57588 11.9407C7.12384 11.4931 7.79921 11.25 8.49454 11.25C9.18987 11.25 9.86524 11.4931 10.4132 11.9407C10.9612 12.3883 11.3502 13.0146 11.5185 13.7201C11.6868 14.4255 11.6247 15.1696 11.342 15.8338C11.0593 16.4981 10.5723 17.0444 9.95843 17.3859C10.9973 17.6931 11.9351 18.3315 12.678 19.2563ZM8.49454 17.1756C8.99888 17.1756 9.4919 17.0192 9.91124 16.7262C10.3306 16.4332 10.6574 16.0168 10.8504 15.5296C11.0434 15.0424 11.0939 14.5063 10.9955 13.989C10.8971 13.4718 10.6543 12.9967 10.2977 12.6238C9.94104 12.2509 9.48667 11.997 8.99202 11.8941C8.49737 11.7912 7.98465 11.844 7.5187 12.0458C7.05274 12.2476 6.65449 12.5894 6.37429 13.0279C6.09409 13.4664 5.94454 13.9819 5.94454 14.5092C5.94529 15.2161 6.21419 15.8939 6.69224 16.3938C7.1703 16.8936 7.81847 17.1748 8.49454 17.1756Z" fill="#00B0B5"/>
<defs>
<clipPath id="clip0_712_15787">
<rect width="8.66667" height="8.66667" fill="white" transform="translate(13.1666 3.16699)"/>
</clipPath>
</defs>
</svg>
