<svg width="18" height="18" viewBox="0 0 18 18" fill="none" xmlns="http://www.w3.org/2000/svg">
<g clip-path="url(#clip0_1846_21932)">
<path d="M14.5248 1.38707H13.8534V0.707695C13.8534 0.319532 13.5387 0.00488281 13.1506 0.00488281C12.7624 0.00488281 12.4477 0.319532 12.4477 0.707695V1.38707H5.55221V0.707695C5.55221 0.319532 5.23757 0.00488281 4.8494 0.00488281C4.46124 0.00488281 4.14659 0.319532 4.14659 0.707695V1.38707H3.47523C1.55898 1.38707 0 2.94605 0 4.86226V14.5216C0 16.4379 1.55898 17.9969 3.47523 17.9969H14.5248C16.441 17.9969 18 16.4379 18 14.5216V4.86226C18 2.94605 16.441 1.38707 14.5248 1.38707ZM3.47523 2.79269H4.14659V4.16318C4.14659 4.55134 4.46124 4.86599 4.8494 4.86599C5.23757 4.86599 5.55221 4.55134 5.55221 4.16318V2.79269H12.4478V4.16318C12.4478 4.55134 12.7624 4.86599 13.1506 4.86599C13.5388 4.86599 13.8534 4.55134 13.8534 4.16318V2.79269H14.5248C15.666 2.79269 16.5944 3.72111 16.5944 4.86226V5.53366H1.40562V4.86226C1.40562 3.72111 2.33404 2.79269 3.47523 2.79269ZM14.5248 16.5912H3.47523C2.33404 16.5912 1.40562 15.6628 1.40562 14.5216V6.93928H16.5944V14.5216C16.5944 15.6628 15.666 16.5912 14.5248 16.5912ZM6.24333 9.70369C6.24333 10.0919 5.92868 10.4065 5.54051 10.4065H4.15833C3.77016 10.4065 3.45552 10.0919 3.45552 9.70369C3.45552 9.31552 3.77016 9.00088 4.15833 9.00088H5.54051C5.92864 9.00088 6.24333 9.31552 6.24333 9.70369ZM14.5445 9.70369C14.5445 10.0919 14.2299 10.4065 13.8417 10.4065H12.4595C12.0714 10.4065 11.7567 10.0919 11.7567 9.70369C11.7567 9.31552 12.0714 9.00088 12.4595 9.00088H13.8417C14.2298 9.00088 14.5445 9.31552 14.5445 9.70369ZM10.3899 9.70369C10.3899 10.0919 10.0753 10.4065 9.6871 10.4065H8.30492C7.91676 10.4065 7.60211 10.0919 7.60211 9.70369C7.60211 9.31552 7.91676 9.00088 8.30492 9.00088H9.6871C10.0752 9.00088 10.3899 9.31552 10.3899 9.70369ZM6.24333 13.8503C6.24333 14.2384 5.92868 14.5531 5.54051 14.5531H4.15833C3.77016 14.5531 3.45552 14.2384 3.45552 13.8503C3.45552 13.4621 3.77016 13.1475 4.15833 13.1475H5.54051C5.92864 13.1475 6.24333 13.4621 6.24333 13.8503ZM14.5445 13.8503C14.5445 14.2384 14.2299 14.5531 13.8417 14.5531H12.4595C12.0714 14.5531 11.7567 14.2384 11.7567 13.8503C11.7567 13.4621 12.0714 13.1475 12.4595 13.1475H13.8417C14.2298 13.1475 14.5445 13.4621 14.5445 13.8503ZM10.3899 13.8503C10.3899 14.2384 10.0753 14.5531 9.6871 14.5531H8.30492C7.91676 14.5531 7.60211 14.2384 7.60211 13.8503C7.60211 13.4621 7.91676 13.1475 8.30492 13.1475H9.6871C10.0752 13.1475 10.3899 13.4621 10.3899 13.8503Z" fill="#AF8E72"/>
</g>
<defs>
<clipPath id="clip0_1846_21932">
<rect width="18" height="18" fill="white"/>
</clipPath>
</defs>
</svg>
