<svg width="20" height="19" viewBox="0 0 20 19" fill="none" xmlns="http://www.w3.org/2000/svg">
<path d="M9.99935 0.791992C8.27701 0.791992 6.59334 1.30273 5.16126 2.25961C3.72918 3.21649 2.61302 4.57655 1.9539 6.16779C1.29479 7.75903 1.12233 9.50999 1.45835 11.1992C1.79436 12.8885 2.62375 14.4402 3.84163 15.658C5.05951 16.8759 6.61119 17.7053 8.30044 18.0413C9.98969 18.3773 11.7406 18.2049 13.3319 17.5458C14.9231 16.8867 16.2832 15.7705 17.2401 14.3384C18.197 12.9063 18.7077 11.2227 18.7077 9.50033C18.705 7.19157 17.7866 4.97815 16.1541 3.34561C14.5215 1.71307 12.3081 0.794716 9.99935 0.791992ZM9.99935 16.6253C8.59016 16.6253 7.21261 16.2075 6.04091 15.4245C4.86921 14.6416 3.95599 13.5289 3.41671 12.2269C2.87744 10.925 2.73634 9.49242 3.01126 8.11031C3.28618 6.72819 3.96477 5.45864 4.96122 4.46219C5.95767 3.46574 7.22722 2.78715 8.60933 2.51223C9.99145 2.23731 11.424 2.37841 12.726 2.91768C14.0279 3.45696 15.1407 4.37019 15.9236 5.54189C16.7065 6.71359 17.1244 8.09113 17.1244 9.50033C17.122 11.3893 16.3706 13.2002 15.0349 14.5359C13.6992 15.8716 11.8883 16.623 9.99935 16.6253Z" fill="#AF8E72"/>
<path d="M10.7923 9.17192V4.74967C10.7923 4.53971 10.7089 4.33835 10.5604 4.18988C10.412 4.04142 10.2106 3.95801 10.0007 3.95801C9.79069 3.95801 9.58932 4.04142 9.44086 4.18988C9.29239 4.33835 9.20898 4.53971 9.20898 4.74967V9.49967C9.20903 9.70962 9.29247 9.91095 9.44094 10.0594L11.8159 12.4344C11.9653 12.5786 12.1652 12.6584 12.3728 12.6566C12.5804 12.6548 12.7789 12.5715 12.9257 12.4247C13.0725 12.278 13.1558 12.0794 13.1576 11.8718C13.1594 11.6643 13.0796 11.4643 12.9354 11.315L10.7923 9.17192Z" fill="#AF8E72"/>
</svg>
