<svg width="24" height="25" viewBox="0 0 24 25" fill="none" xmlns="http://www.w3.org/2000/svg">
<path d="M12.5 2.5C10.4233 2.5 8.39323 3.08649 6.66652 4.1853C4.9398 5.28412 3.59399 6.8459 2.79927 8.67316C2.00455 10.5004 1.79661 12.5111 2.20176 14.4509C2.6069 16.3907 3.60693 18.1725 5.07538 19.5711C6.54383 20.9696 8.41475 21.922 10.4516 22.3078C12.4884 22.6937 14.5996 22.4957 16.5182 21.7388C18.4368 20.9819 20.0767 19.7002 21.2304 18.0557C22.3842 16.4112 23 14.4778 23 12.5C22.9969 9.84873 21.8897 7.30688 19.9212 5.43215C17.9528 3.55741 15.2838 2.50291 12.5 2.5ZM12.5 21.561C11.8354 20.952 10.085 19.12 9.21665 16.1H15.7834C14.915 19.12 13.1647 20.952 12.5 21.561ZM9.0161 15.3C8.62131 13.4523 8.62131 11.5477 9.0161 9.7H15.9839C16.3787 11.5477 16.3787 13.4523 15.9839 15.3H9.0161ZM12.5 3.439C13.1647 4.048 14.915 5.88 15.7834 8.9H9.21665C10.085 5.88 11.8354 4.048 12.5 3.439ZM16.8481 9.7H21.7022C22.3126 11.5214 22.3126 13.4786 21.7022 15.3H16.8481C17.2106 13.4493 17.2106 11.5507 16.8481 9.7ZM21.3893 8.9H16.6643C16.1343 6.84219 15.0819 4.93981 13.5994 3.36C15.2953 3.54765 16.909 4.15889 18.277 5.13178C19.645 6.10467 20.7187 7.40465 21.3893 8.9ZM11.4017 3.36C9.91919 4.93981 8.86672 6.84219 8.33675 8.9H3.61175C4.28235 7.40465 5.35605 6.10467 6.72406 5.13178C8.09207 4.15889 9.70578 3.54765 11.4017 3.36ZM3.2978 9.7H8.15195C7.78936 11.5507 7.78936 13.4493 8.15195 15.3H3.2978C2.68742 13.4786 2.68742 11.5214 3.2978 9.7ZM3.6128 16.1H8.3378C8.86777 18.1578 9.92024 20.0602 11.4028 21.64C9.70646 21.4527 8.09231 20.8416 6.7239 19.8687C5.3555 18.8958 4.28148 17.5956 3.6107 16.1H3.6128ZM13.6004 21.64C15.0822 20.06 16.1339 18.1576 16.6633 16.1H21.3883C20.7176 17.5953 19.644 18.8953 18.2759 19.8682C16.9079 20.8411 15.2942 21.4523 13.5983 21.64H13.6004Z" fill="#00B0B5"/>
<rect x="1.45" y="2.95" width="11.1" height="19.1" rx="1.55" fill="white" stroke="#00B0B5" stroke-width="0.9"/>
<path d="M7.9375 12.1875H7.3125V9.6875H7.625C7.95652 9.6875 8.27446 9.8192 8.50888 10.0536C8.7433 10.288 8.875 10.606 8.875 10.9375C8.875 11.0204 8.90792 11.0999 8.96653 11.1585C9.02513 11.2171 9.10462 11.25 9.1875 11.25C9.27038 11.25 9.34987 11.2171 9.40847 11.1585C9.46708 11.0999 9.5 11.0204 9.5 10.9375C9.49948 10.4404 9.30177 9.96376 8.95025 9.61225C8.59874 9.26073 8.12212 9.06302 7.625 9.0625H7.3125V8.4375C7.3125 8.35462 7.27958 8.27513 7.22097 8.21653C7.16237 8.15792 7.08288 8.125 7 8.125C6.91712 8.125 6.83763 8.15792 6.77903 8.21653C6.72042 8.27513 6.6875 8.35462 6.6875 8.4375V9.0625H6.375C5.87772 9.0625 5.40081 9.26004 5.04917 9.61167C4.69754 9.96331 4.5 10.4402 4.5 10.9375C4.5 11.4348 4.69754 11.9117 5.04917 12.2633C5.40081 12.615 5.87772 12.8125 6.375 12.8125H6.6875V15.3125H6.0625C5.73098 15.3125 5.41304 15.1808 5.17862 14.9464C4.9442 14.712 4.8125 14.394 4.8125 14.0625C4.8125 13.9796 4.77958 13.9001 4.72097 13.8415C4.66237 13.7829 4.58288 13.75 4.5 13.75C4.41712 13.75 4.33763 13.7829 4.27903 13.8415C4.22042 13.9001 4.1875 13.9796 4.1875 14.0625C4.18802 14.5596 4.38573 15.0362 4.73725 15.3878C5.08876 15.7393 5.56538 15.937 6.0625 15.9375H6.6875V16.5625C6.6875 16.6454 6.72042 16.7249 6.77903 16.7835C6.83763 16.8421 6.91712 16.875 7 16.875C7.08288 16.875 7.16237 16.8421 7.22097 16.7835C7.27958 16.7249 7.3125 16.6454 7.3125 16.5625V15.9375H7.9375C8.43478 15.9375 8.91169 15.74 9.26333 15.3883C9.61496 15.0367 9.8125 14.5598 9.8125 14.0625C9.8125 13.5652 9.61496 13.0883 9.26333 12.7367C8.91169 12.385 8.43478 12.1875 7.9375 12.1875ZM6.375 12.1875C6.04348 12.1875 5.72554 12.0558 5.49112 11.8214C5.2567 11.587 5.125 11.269 5.125 10.9375C5.125 10.606 5.2567 10.288 5.49112 10.0536C5.72554 9.8192 6.04348 9.6875 6.375 9.6875H6.6875V12.1875H6.375ZM7.9375 15.3125H7.3125V12.8125H7.9375C8.26902 12.8125 8.58696 12.9442 8.82138 13.1786C9.0558 13.413 9.1875 13.731 9.1875 14.0625C9.1875 14.394 9.0558 14.712 8.82138 14.9464C8.58696 15.1808 8.26902 15.3125 7.9375 15.3125Z" fill="#00B0B5"/>
</svg>
