<svg width="20" height="20" viewBox="0 0 20 20" fill="none" xmlns="http://www.w3.org/2000/svg">
<path d="M3.125 13.1254C3.6425 13.1227 4.14642 12.9596 4.56724 12.6583C4.98806 12.3571 5.30503 11.9328 5.47443 11.4438C5.64383 10.9548 5.65731 10.4253 5.513 9.92829C5.36869 9.43131 5.07371 8.99136 4.66875 8.66915L6.49375 6.65665C6.81035 6.7986 7.15304 6.8731 7.5 6.8754H7.7125L10.8375 13.7504C10.4728 14.0683 10.2081 14.4853 10.0756 14.9506C9.94319 15.416 9.94863 15.9098 10.0913 16.3721C10.234 16.8345 10.5077 17.2455 10.8794 17.5553C11.2511 17.8651 11.7046 18.0604 12.1851 18.1175C12.6656 18.1746 13.1523 18.0911 13.5862 17.877C14.0201 17.6629 14.3826 17.3275 14.6297 16.9115C14.8767 16.4955 14.9978 16.0167 14.9781 15.5333C14.9584 15.0498 14.7988 14.5825 14.5187 14.1879L16.6 11.2504C16.6916 11.2555 16.7834 11.2555 16.875 11.2504C17.4698 11.2544 18.0465 11.0462 18.5015 10.6632C18.9566 10.2801 19.2602 9.74744 19.3578 9.16072C19.4554 8.57399 19.3406 7.97169 19.0341 7.46198C18.7275 6.95227 18.2493 6.56856 17.6853 6.37975C17.1213 6.19095 16.5084 6.20942 15.9568 6.43186C15.4051 6.65429 14.9509 7.06612 14.6756 7.59337C14.4003 8.12061 14.322 8.72874 14.4548 9.30852C14.5876 9.8883 14.9227 10.4017 15.4 10.7566L13.5875 13.3816C13.0893 13.1305 12.5195 13.0599 11.975 13.1816L8.9 6.44415C9.31555 6.16532 9.63787 5.76819 9.82523 5.30416C10.0126 4.84013 10.0564 4.33054 9.95092 3.84135C9.84546 3.35215 9.59562 2.90587 9.23372 2.56023C8.87182 2.2146 8.41453 1.98554 7.921 1.90267C7.42748 1.81981 6.92045 1.88697 6.46551 2.09546C6.01058 2.30395 5.62869 2.64417 5.36925 3.0721C5.10981 3.50003 4.98477 3.99597 5.01031 4.49575C5.03585 4.99553 5.21079 5.47614 5.5125 5.8754L3.44375 8.15665C3.33829 8.13933 3.23182 8.12889 3.125 8.1254C2.46196 8.1254 1.82607 8.38879 1.35723 8.85763C0.888392 9.32647 0.625 9.96236 0.625 10.6254C0.625 11.2884 0.888392 11.9243 1.35723 12.3932C1.82607 12.862 2.46196 13.1254 3.125 13.1254ZM16.875 7.5004C17.1222 7.5004 17.3639 7.57371 17.5695 7.71106C17.775 7.84841 17.9352 8.04364 18.0299 8.27204C18.1245 8.50045 18.1492 8.75178 18.101 8.99426C18.0527 9.23674 17.9337 9.45947 17.7589 9.63428C17.5841 9.8091 17.3613 9.92815 17.1189 9.97638C16.8764 10.0246 16.6251 9.99986 16.3966 9.90525C16.1682 9.81064 15.973 9.65042 15.8357 9.44486C15.6983 9.2393 15.625 8.99762 15.625 8.7504C15.625 8.41888 15.7567 8.10094 15.9911 7.86652C16.2255 7.63209 16.5435 7.5004 16.875 7.5004ZM13.75 15.6254C13.75 15.8726 13.6767 16.1143 13.5393 16.3199C13.402 16.5254 13.2068 16.6856 12.9784 16.7802C12.7499 16.8749 12.4986 16.8996 12.2561 16.8514C12.0137 16.8031 11.7909 16.6841 11.6161 16.5093C11.4413 16.3345 11.3222 16.1117 11.274 15.8693C11.2258 15.6268 11.2505 15.3755 11.3451 15.147C11.4398 14.9186 11.6 14.7234 11.8055 14.5861C12.0111 14.4487 12.2528 14.3754 12.5 14.3754C12.8315 14.3754 13.1495 14.5071 13.3839 14.7415C13.6183 14.9759 13.75 15.2939 13.75 15.6254ZM7.5 3.1254C7.74723 3.1254 7.9889 3.19871 8.19446 3.33606C8.40002 3.47341 8.56024 3.66864 8.65485 3.89704C8.74946 4.12545 8.77421 4.37679 8.72598 4.61926C8.67775 4.86174 8.5587 5.08447 8.38388 5.25928C8.20907 5.4341 7.98634 5.55315 7.74386 5.60138C7.50139 5.64961 7.25005 5.62486 7.02165 5.53025C6.79324 5.43564 6.59801 5.27542 6.46066 5.06986C6.32331 4.8643 6.25 4.62263 6.25 4.3754C6.25 4.04388 6.3817 3.72594 6.61612 3.49152C6.85054 3.25709 7.16848 3.1254 7.5 3.1254ZM3.125 9.3754C3.37223 9.3754 3.6139 9.44871 3.81946 9.58606C4.02502 9.72341 4.18524 9.91864 4.27985 10.147C4.37446 10.3755 4.39921 10.6268 4.35098 10.8693C4.30275 11.1117 4.1837 11.3345 4.00888 11.5093C3.83407 11.6841 3.61134 11.8031 3.36886 11.8514C3.12639 11.8996 2.87505 11.8749 2.64665 11.7802C2.41824 11.6856 2.22301 11.5254 2.08566 11.3199C1.94831 11.1143 1.875 10.8726 1.875 10.6254C1.875 10.2939 2.0067 9.97594 2.24112 9.74152C2.47554 9.50709 2.79348 9.3754 3.125 9.3754Z" fill="#AF8E72"/>
</svg>
