<svg width="24" height="24" viewBox="0 0 24 24" fill="none" xmlns="http://www.w3.org/2000/svg">
<g clip-path="url(#clip0_1132_9068)">
<path d="M1.34926 19.8991C1.1749 20.0762 1.17711 20.3611 1.35421 20.5355C1.5313 20.7099 1.81622 20.7077 1.99058 20.5306L1.34926 19.8991ZM22.5192 6.77513C22.5134 6.52667 22.3073 6.32998 22.0588 6.3358L18.0099 6.43066C17.7615 6.43648 17.5648 6.64261 17.5706 6.89107C17.5764 7.13953 17.7826 7.33623 18.031 7.33041L21.63 7.24609L21.7144 10.8451C21.7202 11.0936 21.9263 11.2903 22.1748 11.2844C22.4232 11.2786 22.6199 11.0725 22.6141 10.824L22.5192 6.77513ZM12.4893 15.7037L12.2066 16.0538L12.4893 15.7037ZM9.53127 13.3153L9.24857 13.6654L9.53127 13.3153ZM1.99058 20.5306L8.72018 13.6955L8.07886 13.0641L1.34926 19.8991L1.99058 20.5306ZM9.24857 13.6654L12.2066 16.0538L12.772 15.3536L9.81396 12.9651L9.24857 13.6654ZM13.9558 15.9403L22.3949 7.09633L21.7438 6.47502L13.3047 15.319L13.9558 15.9403ZM12.2066 16.0538C12.7305 16.4768 13.4911 16.4274 13.9558 15.9403L13.3047 15.319C13.1632 15.4674 12.9316 15.4824 12.772 15.3536L12.2066 16.0538ZM8.72018 13.6955C8.86237 13.5511 9.09089 13.5381 9.24857 13.6654L9.81396 12.9651C9.29619 12.5471 8.54575 12.5899 8.07886 13.0641L8.72018 13.6955Z" fill="#00B0B5"/>
<g clip-path="url(#clip1_1132_9068)">
<path d="M9 2.9375C8.19652 2.9375 7.41107 3.17576 6.743 3.62215C6.07492 4.06855 5.55422 4.70302 5.24674 5.44535C4.93926 6.18767 4.85881 7.00451 5.01556 7.79255C5.17231 8.5806 5.55923 9.30447 6.12738 9.87262C6.69553 10.4408 7.4194 10.8277 8.20745 10.9844C8.9955 11.1412 9.81233 11.0607 10.5547 10.7533C11.297 10.4458 11.9315 9.92508 12.3778 9.257C12.8242 8.58893 13.0625 7.80349 13.0625 7C13.0614 5.92291 12.633 4.89025 11.8714 4.12863C11.1097 3.36701 10.0771 2.93864 9 2.9375ZM9 10.4375C8.32013 10.4375 7.65552 10.2359 7.09023 9.85818C6.52494 9.48046 6.08434 8.9436 5.82417 8.31547C5.56399 7.68735 5.49592 6.99619 5.62855 6.32938C5.76119 5.66257 6.08858 5.05006 6.56932 4.56932C7.05007 4.08858 7.66257 3.76119 8.32938 3.62855C8.99619 3.49591 9.68736 3.56399 10.3155 3.82416C10.9436 4.08434 11.4805 4.52493 11.8582 5.09023C12.2359 5.65552 12.4375 6.32013 12.4375 7C12.4365 7.91136 12.074 8.78511 11.4295 9.42954C10.7851 10.074 9.91137 10.4365 9 10.4375ZM10.5625 7.78125C10.5625 8.07133 10.4473 8.34953 10.2422 8.55465C10.037 8.75977 9.75883 8.875 9.46875 8.875H9.3125V9.1875C9.3125 9.27038 9.27958 9.34987 9.22097 9.40847C9.16237 9.46708 9.08288 9.5 9 9.5C8.91712 9.5 8.83764 9.46708 8.77903 9.40847C8.72043 9.34987 8.6875 9.27038 8.6875 9.1875V8.875H8.0625C7.97962 8.875 7.90014 8.84208 7.84153 8.78347C7.78293 8.72487 7.75 8.64538 7.75 8.5625C7.75 8.47962 7.78293 8.40013 7.84153 8.34153C7.90014 8.28292 7.97962 8.25 8.0625 8.25H9.46875C9.59307 8.25 9.7123 8.20061 9.80021 8.11271C9.88812 8.0248 9.9375 7.90557 9.9375 7.78125C9.9375 7.65693 9.88812 7.5377 9.80021 7.44979C9.7123 7.36189 9.59307 7.3125 9.46875 7.3125H8.53125C8.24117 7.3125 7.96297 7.19727 7.75785 6.99215C7.55274 6.78703 7.4375 6.50883 7.4375 6.21875C7.4375 5.92867 7.55274 5.65047 7.75785 5.44535C7.96297 5.24023 8.24117 5.125 8.53125 5.125H8.6875V4.8125C8.6875 4.72962 8.72043 4.65013 8.77903 4.59153C8.83764 4.53292 8.91712 4.5 9 4.5C9.08288 4.5 9.16237 4.53292 9.22097 4.59153C9.27958 4.65013 9.3125 4.72962 9.3125 4.8125V5.125H9.9375C10.0204 5.125 10.0999 5.15792 10.1585 5.21653C10.2171 5.27513 10.25 5.35462 10.25 5.4375C10.25 5.52038 10.2171 5.59987 10.1585 5.65847C10.0999 5.71708 10.0204 5.75 9.9375 5.75H8.53125C8.40693 5.75 8.2877 5.79939 8.1998 5.88729C8.11189 5.9752 8.0625 6.09443 8.0625 6.21875C8.0625 6.34307 8.11189 6.4623 8.1998 6.55021C8.2877 6.63811 8.40693 6.6875 8.53125 6.6875H9.46875C9.75883 6.6875 10.037 6.80273 10.2422 7.00785C10.4473 7.21297 10.5625 7.49117 10.5625 7.78125Z" fill="#00B0B5"/>
</g>
</g>
<defs>
<clipPath id="clip0_1132_9068">
<rect width="24" height="24" fill="white"/>
</clipPath>
<clipPath id="clip1_1132_9068">
<rect width="10" height="10" fill="white" transform="translate(4 2)"/>
</clipPath>
</defs>
</svg>
