<svg width="24" height="24" viewBox="0 0 24 24" fill="none" xmlns="http://www.w3.org/2000/svg">
<g clip-path="url(#clip0_1132_9080)">
<path d="M16.3438 7.21875H15.7812V4.96875H16.0625C16.3609 4.96875 16.647 5.08728 16.858 5.29825C17.069 5.50923 17.1875 5.79538 17.1875 6.09375C17.1875 6.16834 17.2171 6.23988 17.2699 6.29262C17.3226 6.34537 17.3942 6.375 17.4688 6.375C17.5433 6.375 17.6149 6.34537 17.6676 6.29262C17.7204 6.23988 17.75 6.16834 17.75 6.09375C17.7495 5.64634 17.5716 5.21739 17.2552 4.90102C16.9389 4.58465 16.5099 4.40672 16.0625 4.40625H15.7812V3.84375C15.7812 3.76916 15.7516 3.69762 15.6989 3.64488C15.6461 3.59213 15.5746 3.5625 15.5 3.5625C15.4254 3.5625 15.3539 3.59213 15.3011 3.64488C15.2484 3.69762 15.2188 3.76916 15.2188 3.84375V4.40625H14.9375C14.4899 4.40625 14.0607 4.58404 13.7443 4.90051C13.4278 5.21697 13.25 5.6462 13.25 6.09375C13.25 6.5413 13.4278 6.97053 13.7443 7.28699C14.0607 7.60346 14.4899 7.78125 14.9375 7.78125H15.2188V10.0312H14.6562C14.3579 10.0312 14.0717 9.91272 13.8608 9.70175C13.6498 9.49077 13.5312 9.20462 13.5312 8.90625C13.5312 8.83166 13.5016 8.76012 13.4489 8.70738C13.3961 8.65463 13.3246 8.625 13.25 8.625C13.1754 8.625 13.1039 8.65463 13.0511 8.70738C12.9984 8.76012 12.9688 8.83166 12.9688 8.90625C12.9692 9.35366 13.1472 9.78261 13.4635 10.099C13.7799 10.4153 14.2088 10.5933 14.6562 10.5938H15.2188V11.1562C15.2188 11.2308 15.2484 11.3024 15.3011 11.3551C15.3539 11.4079 15.4254 11.4375 15.5 11.4375C15.5746 11.4375 15.6461 11.4079 15.6989 11.3551C15.7516 11.3024 15.7812 11.2308 15.7812 11.1562V10.5938H16.3438C16.7913 10.5938 17.2205 10.416 17.537 10.0995C17.8535 9.78303 18.0312 9.3538 18.0312 8.90625C18.0312 8.4587 17.8535 8.02947 17.537 7.71301C17.2205 7.39654 16.7913 7.21875 16.3438 7.21875ZM14.9375 7.21875C14.6391 7.21875 14.353 7.10022 14.142 6.88925C13.931 6.67827 13.8125 6.39212 13.8125 6.09375C13.8125 5.79538 13.931 5.50923 14.142 5.29825C14.353 5.08728 14.6391 4.96875 14.9375 4.96875H15.2188V7.21875H14.9375ZM16.3438 10.0312H15.7812V7.78125H16.3438C16.6421 7.78125 16.9283 7.89978 17.1392 8.11075C17.3502 8.32173 17.4688 8.60788 17.4688 8.90625C17.4688 9.20462 17.3502 9.49077 17.1392 9.70175C16.9283 9.91272 16.6421 10.0312 16.3438 10.0312Z" fill="#00B0B5"/>
<path d="M4.40593 16.9111L4.03961 17.1725L4.40593 16.9111ZM15.099 16.9111L15.3655 16.5486L15.099 16.9111ZM14.6311 18.7846L14.5396 19.2252L14.5849 19.2346H14.6311L14.6311 18.7846ZM10.53 17.4114C10.2889 17.351 10.0446 17.4975 9.98423 17.7386C9.92388 17.9797 10.0704 18.2241 10.3115 18.2844L10.53 17.4114ZM15.4114 17.3795L14.9813 17.512L15.4114 17.3795ZM7.25784 20.9085L6.89151 21.1699L7.25784 20.9085ZM8.93305 20.2858L8.82378 20.7223L8.93305 20.2858ZM8.20398 20.382L7.98516 19.9888L8.20398 20.382ZM14.52 21.3722L14.7593 21.7532L14.52 21.3722ZM13.7538 21.4924L13.6445 21.9289L13.7538 21.4924ZM7.2236 22.636L7.47342 23.0103L7.2236 22.636ZM7.4825 21.2234L7.11618 21.4848L7.4825 21.2234ZM2.59722 16.0442L2.3474 15.6699L2.59722 16.0442ZM2.24982 16.8171L2.84704 16.4184L2.3474 15.6699L1.75018 16.0685L2.24982 16.8171ZM6.97378 22.2617L6.42838 22.6257L6.92802 23.3743L7.47342 23.0103L6.97378 22.2617ZM3.60011 16.5565L4.03961 17.1725L4.77226 16.6498L4.33276 16.0338L3.60011 16.5565ZM4.63287 17.2997C5.2775 16.9233 5.81101 16.5049 6.27103 16.1884C6.74435 15.8627 7.18175 15.6115 7.72451 15.4738L7.50317 14.6015C6.80934 14.7775 6.26917 15.0972 5.76087 15.447C5.23928 15.8058 4.78713 16.1674 4.17899 16.5226L4.63287 17.2997ZM7.72451 15.4738C7.8081 15.4526 7.97345 15.441 8.23528 15.4586C8.48706 15.4755 8.79382 15.5166 9.1407 15.5779C9.83381 15.7003 10.6588 15.8983 11.4712 16.1219C12.2827 16.3452 13.0735 16.5918 13.6968 16.8093C14.0087 16.9182 14.2748 17.0185 14.4787 17.1037C14.5807 17.1464 14.6638 17.1839 14.7274 17.2155C14.7591 17.2313 14.784 17.2446 14.8029 17.2554C14.8122 17.2608 14.8193 17.2651 14.8245 17.2685C14.8271 17.2701 14.8291 17.2714 14.8304 17.2723C14.8318 17.2733 14.8324 17.2737 14.8324 17.2737L15.3655 16.5486C15.2399 16.4562 15.0372 16.3618 14.8259 16.2734C14.5996 16.1788 14.3152 16.0719 13.9934 15.9596C13.349 15.7347 12.5387 15.4822 11.71 15.2541C10.8822 15.0263 10.0279 14.8207 9.29729 14.6916C8.9323 14.6271 8.59106 14.5804 8.29551 14.5606C8.01003 14.5415 7.72873 14.5442 7.50317 14.6015L7.72451 15.4738ZM14.6311 18.7846C14.7227 18.344 14.7226 18.344 14.7226 18.344C14.7226 18.344 14.7226 18.344 14.7225 18.344C14.7225 18.344 14.7223 18.344 14.7222 18.3439C14.7219 18.3439 14.7214 18.3438 14.7207 18.3436C14.7194 18.3434 14.7175 18.343 14.7149 18.3424C14.7097 18.3413 14.7019 18.3397 14.6917 18.3376C14.6714 18.3334 14.6412 18.3271 14.6023 18.3189C14.5246 18.3027 14.4117 18.279 14.2718 18.2494C13.9918 18.1903 13.6033 18.1077 13.1693 18.0137C12.2995 17.8252 11.2532 17.5924 10.53 17.4114L10.3115 18.2844C11.0499 18.4693 12.1087 18.7048 12.9788 18.8932C13.4147 18.9877 13.8047 19.0706 14.0858 19.13C14.2264 19.1597 14.3397 19.1835 14.418 19.1999C14.4571 19.208 14.4875 19.2144 14.5081 19.2187C14.5184 19.2208 14.5262 19.2225 14.5315 19.2236C14.5342 19.2241 14.5362 19.2245 14.5376 19.2248C14.5382 19.2249 14.5387 19.2251 14.5391 19.2251C14.5393 19.2252 14.5394 19.2252 14.5395 19.2252C14.5395 19.2252 14.5396 19.2252 14.5396 19.2252C14.5396 19.2252 14.5396 19.2252 14.6311 18.7846ZM14.8324 17.2737C14.8858 17.313 14.9435 17.3892 14.9813 17.512L15.8415 17.2471C15.7617 16.9881 15.6108 16.7289 15.3655 16.5486L14.8324 17.2737ZM14.9813 17.512C15.0416 17.7075 15.0265 17.9433 14.9471 18.1136C14.876 18.266 14.7759 18.3346 14.6311 18.3346L14.6311 19.2346C15.1938 19.2346 15.5749 18.8965 15.7626 18.4942C15.942 18.1098 15.9634 17.643 15.8415 17.2471L14.9813 17.512ZM15.4114 17.3795C15.6905 17.7325 15.6905 17.7325 15.6905 17.7325C15.6905 17.7325 15.6905 17.7325 15.6905 17.7325C15.6906 17.7325 15.6907 17.7324 15.6908 17.7323C15.6911 17.732 15.6916 17.7317 15.6922 17.7312C15.6935 17.7302 15.6955 17.7286 15.6981 17.7265C15.7035 17.7223 15.7115 17.716 15.7222 17.7076C15.7435 17.691 15.7751 17.6664 15.8158 17.6349C15.8972 17.572 16.0148 17.4818 16.1591 17.3734C16.448 17.1564 16.8418 16.868 17.2632 16.5802C17.6863 16.2914 18.1293 16.0087 18.5183 15.8001C18.7129 15.6957 18.8862 15.6141 19.0314 15.5596C19.1845 15.5021 19.2731 15.4876 19.3093 15.4876L19.3093 14.5876C19.1117 14.5876 18.903 14.6464 18.715 14.717C18.5192 14.7905 18.3075 14.8919 18.0928 15.007C17.6632 15.2375 17.1902 15.5403 16.7558 15.8369C16.3197 16.1347 15.9144 16.4317 15.6186 16.6538C15.4706 16.765 15.3495 16.8577 15.2653 16.9229C15.2231 16.9555 15.1902 16.9811 15.1676 16.9988C15.1563 17.0076 15.1477 17.0144 15.1417 17.0191C15.1388 17.0214 15.1365 17.0232 15.1349 17.0245C15.1341 17.0251 15.1335 17.0256 15.1331 17.0259C15.1329 17.0261 15.1327 17.0262 15.1326 17.0263C15.1325 17.0264 15.1324 17.0264 15.1324 17.0264C15.1324 17.0265 15.1323 17.0265 15.4114 17.3795ZM19.3093 15.4876C19.695 15.4876 20.146 15.6367 20.3865 15.8607C20.4973 15.9639 20.5423 16.0616 20.549 16.1532C20.5559 16.2464 20.5286 16.4061 20.3524 16.6416L21.0732 17.1807C21.3387 16.8256 21.4738 16.4558 21.4466 16.0869C21.4192 15.7165 21.2335 15.4197 20.9999 15.2021C20.5517 14.7847 19.8594 14.5877 19.3093 14.5876L19.3093 15.4876ZM20.3524 16.6416C20.2062 16.8372 19.8507 17.1582 19.3292 17.5648C18.8219 17.9604 18.1973 18.407 17.552 18.8503C16.262 19.7365 14.9072 20.5976 14.2807 20.9911L14.7593 21.7532C15.3896 21.3574 16.7566 20.4887 18.0616 19.5921C18.7137 19.1441 19.3549 18.686 19.8826 18.2746C20.3961 17.8742 20.8449 17.4858 21.0732 17.1807L20.3524 16.6416ZM13.8631 21.0558L9.04231 19.8492L8.82378 20.7223L13.6445 21.9289L13.8631 21.0558ZM4.03961 17.1725L6.89151 21.1699L7.62417 20.6472L4.77226 16.6498L4.03961 17.1725ZM6.89151 21.1699L7.11618 21.4848L7.84883 20.9621L7.62417 20.6472L6.89151 21.1699ZM7.98516 19.9888L7.03902 20.5153L7.47666 21.3018L8.4228 20.7752L7.98516 19.9888ZM9.04231 19.8492C8.68499 19.7598 8.30702 19.8097 7.98516 19.9888L8.4228 20.7752C8.54488 20.7073 8.68825 20.6884 8.82378 20.7223L9.04231 19.8492ZM14.2807 20.9911C14.1576 21.0684 14.008 21.0921 13.8631 21.0558L13.6445 21.9289C14.0233 22.0237 14.4253 21.9631 14.7593 21.7532L14.2807 20.9911ZM7.47342 23.0103C8.15421 22.5559 8.3242 21.6284 7.84883 20.9621L7.11618 21.4848C7.29649 21.7375 7.23201 22.0893 6.97378 22.2617L7.47342 23.0103ZM2.84704 16.4184C3.09414 16.2535 3.42756 16.3146 3.60011 16.5565L4.33276 16.0338C3.87787 15.3962 2.99885 15.235 2.3474 15.6699L2.84704 16.4184Z" fill="#00B0B5"/>
<circle cx="15.5" cy="7.5" r="6.05" stroke="#00B0B5" stroke-width="0.9"/>
</g>
<defs>
<clipPath id="clip0_1132_9080">
<rect width="24" height="24" fill="white"/>
</clipPath>
</defs>
</svg>
