<?xml version="1.0" standalone="no"?>
<!DOCTYPE svg PUBLIC "-//W3C//DTD SVG 20010904//EN"
 "http://www.w3.org/TR/2001/REC-SVG-20010904/DTD/svg10.dtd">
<svg version="1.0" xmlns="http://www.w3.org/2000/svg"
 width="700.000000pt" height="700.000000pt" viewBox="0 0 700.000000 700.000000"
 preserveAspectRatio="xMidYMid meet">
<metadata>
Created by potrace 1.14, written by Peter Selinger 2001-2017
</metadata>
<g transform="translate(0.000000,700.000000) scale(0.100000,-0.100000)"
fill="#000000" stroke="none">
<path d="M1437 5770 c-32 -25 -44 -63 -52 -162 -3 -42 -7 -85 -9 -95 -4 -19
-12 -95 -22 -190 -3 -32 -7 -74 -10 -93 -3 -19 -7 -57 -9 -85 -3 -27 -7 -68
-9 -90 -3 -22 -7 -67 -11 -100 -3 -33 -8 -76 -10 -95 -2 -19 -7 -57 -10 -85
-2 -27 -7 -68 -9 -90 -3 -22 -8 -71 -11 -110 -4 -38 -8 -81 -10 -95 -2 -14 -7
-52 -10 -85 -3 -33 -8 -76 -10 -95 -3 -19 -7 -60 -10 -90 -3 -30 -7 -75 -10
-100 -8 -66 -13 -117 -20 -185 -3 -33 -8 -71 -10 -85 -2 -14 -7 -59 -10 -100
-4 -41 -9 -82 -10 -91 -2 -8 -6 -49 -9 -90 -4 -41 -9 -85 -11 -99 -2 -14 -7
-58 -10 -98 -4 -41 -8 -81 -10 -91 -2 -9 -6 -48 -10 -86 -11 -106 -12 -115
-19 -177 -3 -32 -9 -84 -12 -115 -3 -32 -7 -74 -10 -93 -2 -19 -6 -60 -9 -90
-3 -30 -8 -71 -10 -90 -7 -47 -13 -101 -20 -188 -4 -41 -8 -81 -10 -90 -1 -9
-6 -48 -9 -87 -9 -90 -15 -151 -21 -195 -2 -19 -7 -60 -10 -90 -3 -30 -8 -75
-11 -100 -2 -25 -7 -65 -9 -90 -5 -49 -12 -117 -22 -195 -15 -132 -5 -172 52
-199 47 -23 661 -24 704 -1 46 23 60 64 76 215 3 30 8 71 10 90 9 69 14 116
20 170 3 30 7 71 10 90 2 19 7 60 10 90 3 30 8 69 10 85 2 17 7 57 10 90 3 33
8 76 10 95 3 19 8 58 11 85 8 86 16 153 29 265 2 19 7 60 10 90 3 30 10 91 15
135 5 44 12 105 15 135 3 30 7 66 10 80 2 14 7 56 10 93 4 37 8 76 10 85 1 9
6 53 11 97 4 44 8 82 9 85 1 3 7 60 15 128 7 68 17 119 21 115 7 -7 718 -1275
826 -1473 20 -36 39 -69 43 -75 4 -5 24 -41 45 -80 21 -38 66 -119 100 -180
72 -128 106 -189 148 -265 17 -30 41 -71 53 -91 13 -20 21 -39 18 -41 -2 -3 2
-11 11 -18 8 -7 15 -16 15 -21 0 -17 83 -145 119 -183 45 -48 88 -67 135 -59
61 10 116 74 208 243 20 36 76 137 125 225 50 88 105 187 123 220 18 33 74
132 123 220 79 142 149 266 407 730 37 66 79 140 93 165 33 60 56 101 232 418
83 148 151 269 152 268 4 -4 12 -61 18 -134 4 -42 9 -85 11 -96 2 -10 6 -44 9
-75 3 -31 8 -69 10 -86 2 -16 7 -61 10 -100 3 -38 8 -77 10 -85 2 -8 7 -51 11
-95 3 -44 8 -82 9 -85 2 -3 6 -43 10 -90 4 -47 8 -87 10 -90 2 -3 6 -43 10
-90 4 -47 9 -93 10 -102 2 -9 7 -48 10 -85 4 -37 8 -79 10 -93 3 -14 7 -50 10
-80 9 -93 14 -141 20 -179 2 -20 7 -63 10 -96 3 -33 7 -71 10 -85 2 -14 6 -56
10 -95 3 -38 8 -81 10 -95 2 -14 7 -52 10 -85 3 -33 7 -76 10 -95 2 -19 7 -57
10 -84 8 -65 28 -102 68 -123 28 -15 70 -17 332 -18 316 -1 369 4 408 44 22
21 26 80 14 189 -4 34 -10 90 -13 125 -3 34 -7 69 -9 77 -2 8 -6 51 -10 95 -4
44 -8 82 -10 85 -1 3 -6 41 -9 85 -4 44 -9 94 -11 110 -6 38 -13 102 -20 185
-3 36 -8 76 -10 90 -3 21 -17 142 -30 280 -2 19 -6 53 -10 75 -3 22 -7 65 -10
95 -3 30 -8 75 -10 100 -3 25 -7 66 -10 90 -3 24 -7 65 -10 90 -2 25 -7 72
-10 105 -3 33 -8 71 -10 85 -3 14 -7 57 -11 95 -3 39 -8 84 -10 100 -4 32 -12
101 -19 180 -3 28 -7 66 -10 85 -4 32 -9 85 -21 200 -2 25 -6 65 -9 90 -3 25
-8 68 -10 95 -3 28 -7 68 -10 90 -2 22 -7 67 -10 100 -3 33 -7 74 -10 90 -2
17 -7 57 -10 90 -3 33 -8 74 -10 90 -2 17 -7 66 -11 110 -3 44 -8 89 -10 100
-2 11 -6 47 -9 80 -3 33 -8 76 -10 95 -2 19 -9 85 -15 145 -6 61 -12 126 -15
145 -7 55 -14 121 -30 280 -13 122 -59 171 -139 149 -30 -8 -45 -23 -80 -77
-69 -105 -326 -514 -326 -519 0 -2 -5 -9 -10 -16 -6 -7 -74 -113 -152 -237
-210 -335 -921 -1465 -1175 -1868 -74 -117 -155 -252 -180 -300 -72 -137 -63
-133 -115 -49 -25 39 -106 169 -180 287 -260 415 -363 580 -378 605 -13 21
-423 682 -719 1158 -47 76 -95 152 -106 171 -22 37 -168 271 -371 596 -137
220 -172 260 -225 260 -14 0 -38 -9 -52 -20z"/>
</g>
</svg>
