<svg width="32" height="32" viewBox="0 0 32 32" fill="none" xmlns="http://www.w3.org/2000/svg">
<rect width="32" height="32" rx="16" fill="url(#paint0_linear_273_2514)"/>
<path d="M21.1737 7.20001H10.8261C8.82348 7.20001 7.19995 8.82354 7.19995 10.8263V21.1738C7.19995 23.1766 8.82348 24.8 10.8261 24.8H21.1737C23.1764 24.8 24.8 23.1766 24.8 21.1738V10.8263C24.8 8.82354 23.1764 7.20001 21.1737 7.20001ZM23.2208 20.2454C23.2208 21.8885 21.8885 23.221 20.2453 23.221H11.7546C10.1113 23.221 8.77921 21.8885 8.77921 20.2454V11.7547C8.77921 10.1114 10.1113 8.77913 11.7546 8.77913H20.2453C21.8886 8.77913 23.2208 10.1114 23.2208 11.7547V20.2454Z" fill="white"/>
<path d="M15.9999 11.3212C13.4158 11.3212 11.3209 13.4159 11.3209 16.0001C11.3209 18.5844 13.4158 20.679 15.9999 20.679C18.5841 20.679 20.679 18.5843 20.679 16.0001C20.6789 13.4159 18.5841 11.3212 15.9999 11.3212ZM15.9999 19.1007C14.2876 19.1007 12.8993 17.7126 12.8993 16.0001C12.8993 14.2876 14.2876 12.8996 15.9999 12.8996C17.7124 12.8996 19.1006 14.2876 19.1006 16.0001C19.1006 17.7126 17.7124 19.1007 15.9999 19.1007Z" fill="white"/>
<path d="M20.9983 11.8785C21.5044 11.8785 21.9146 11.4683 21.9146 10.9622C21.9146 10.4562 21.5044 10.046 20.9983 10.046C20.4923 10.046 20.082 10.4562 20.082 10.9622C20.082 11.4683 20.4923 11.8785 20.9983 11.8785Z" fill="white"/>
<defs>
<linearGradient id="paint0_linear_273_2514" x1="4.5" y1="5.58796e-09" x2="24" y2="32" gradientUnits="userSpaceOnUse">
<stop stop-color="#5C2577"/>
<stop offset="0.495104" stop-color="#D0263D"/>
<stop offset="1" stop-color="#E4A44A"/>
</linearGradient>
</defs>
</svg>
