<svg width="32" height="32" viewBox="0 0 32 32" fill="none" xmlns="http://www.w3.org/2000/svg">
<rect width="32" height="32" rx="16" fill="#1B3050"/>
<path d="M8.00012 13.5984H11.9201V24.7983H8.00012V13.5984Z" fill="white"/>
<path d="M9.96003 11.9201C10.3477 11.9201 10.7266 11.8052 11.049 11.5898C11.3713 11.3744 11.6225 11.0683 11.7709 10.7101C11.9192 10.352 11.958 9.95788 11.8824 9.57767C11.8068 9.19746 11.6201 8.84821 11.346 8.57409C11.0719 8.29997 10.7226 8.11329 10.3424 8.03766C9.96221 7.96203 9.56811 8.00085 9.20996 8.1492C8.85181 8.29755 8.5457 8.54878 8.33033 8.87111C8.11495 9.19344 8 9.57239 8 9.96006C8.00028 10.4798 8.20688 10.9782 8.57439 11.3457C8.94191 11.7132 9.44029 11.9198 9.96003 11.9201Z" fill="white"/>
<path d="M24.7997 18.6433C24.7997 15.6211 24.1478 13.5987 20.6249 13.5987C18.9318 13.5987 17.7955 14.2277 17.3306 15.1103H17.2825V13.5984H14.1599V24.7983H17.4239V19.247C17.4239 17.7832 17.7007 16.3656 19.5118 16.3656C21.2959 16.3656 21.4401 18.0397 21.4401 19.3412V24.7983H24.8L24.7997 18.6433Z" fill="white"/>
</svg>
