<svg width="32" height="32" viewBox="0 0 32 32" fill="none" xmlns="http://www.w3.org/2000/svg">
<rect width="32" height="32" rx="16" fill="#3FA9F5"/>
<path d="M24 9.11832C24 9.22207 21.8841 19.3825 21.0335 23.442C20.9104 24.0311 20.5927 24.1585 20.0983 23.8016C18.858 22.906 17.6181 22.0099 16.3788 21.1133C15.8575 20.7364 15.6442 20.7487 15.1375 21.1651C14.5156 21.6762 13.8905 22.1835 13.2623 22.687C12.7566 23.0913 12.4602 22.9991 12.27 22.3911C11.8021 20.8943 11.3272 19.3994 10.8726 17.8989C10.8006 17.6614 10.683 17.5362 10.4555 17.4544C9.30122 17.0396 8.15187 16.6124 7.0008 16.1895C6.77305 16.1057 6.5488 16.0155 6.40002 15.8082C6.40002 15.4373 6.50965 15.2604 6.86784 15.1234C12.3082 13.0433 17.7474 10.96 23.1852 8.87359C23.5467 8.73458 23.8061 8.77987 24 9.11832ZM20.0287 11.9207C19.9812 11.9458 14.7104 15.1671 12.1446 16.745C11.7582 16.9827 11.6181 17.281 11.7322 17.6974C11.9943 18.6513 12.2811 19.5984 12.5539 20.5495C12.5914 20.6803 12.6282 20.8088 12.7895 20.8109C12.9899 20.8135 12.9991 20.6403 13.0197 20.5082C13.087 20.0747 13.1598 19.6404 13.1932 19.2037C13.2072 18.9913 13.2635 18.7839 13.3586 18.5933C13.4538 18.4027 13.586 18.2328 13.7477 18.0933C15.4972 16.4862 19.7472 12.5542 20.1261 12.1991C20.2505 12.0828 20.2405 11.9004 20.0287 11.9207Z" fill="white"/>
</svg>
