<svg width="32" height="32" viewBox="0 0 32 32" fill="none" xmlns="http://www.w3.org/2000/svg">
<rect width="32" height="32" rx="16" fill="#1B3050"/>
<path d="M25.07 9.07796C24.295 9.52603 23.449 9.84116 22.5678 10.01C22.0726 9.50343 21.45 9.13643 20.764 8.94665C20.0781 8.75688 19.3535 8.75117 18.6646 8.93012C18.0778 9.08555 17.5351 9.37273 17.0787 9.76937C16.6222 10.166 16.2643 10.6614 16.0326 11.2172C15.7379 11.9454 15.6763 12.7456 15.8561 13.5096C14.2958 13.4362 12.768 13.0417 11.3702 12.3515C9.97235 11.6612 8.73523 10.6902 7.73769 9.50043C6.69742 11.2394 7.26211 13.519 8.95663 14.6231C8.33207 14.6041 7.72082 14.4398 7.17243 14.1433C7.1749 15.0417 7.49075 15.9116 8.06658 16.6061C8.64241 17.3005 9.44289 17.7769 10.3327 17.9546C9.75172 18.1072 9.14371 18.1296 8.55289 18.0203C8.81108 18.7874 9.30397 19.4561 9.96326 19.9336C10.6225 20.4111 11.4156 20.6738 12.2325 20.6854C10.5696 21.9427 8.47874 22.5123 6.40002 22.2744C9.52512 24.2248 13.5935 24.5461 16.9958 23.1144C19.6745 21.9872 21.7663 19.7695 22.842 17.1055C23.4276 15.671 23.698 14.1296 23.6353 12.5837C24.4045 12.0426 25.0699 11.3698 25.6 10.5971C24.8803 10.908 24.1179 11.1115 23.3378 11.201C24.1572 10.7258 24.7732 9.97087 25.07 9.07796Z" fill="white"/>
</svg>
