<svg width="32" height="32" viewBox="0 0 32 32" fill="none" xmlns="http://www.w3.org/2000/svg">
<rect width="32" height="32" rx="16" fill="#1B3050"/>
<path d="M23.0399 9.59998H8.95996C7.99194 9.59998 7.19995 10.4641 7.19995 11.52V20.48C7.19995 21.5359 7.99194 22.4 8.95996 22.4H23.0399C24.008 22.4 24.8 21.5359 24.8 20.48V11.52C24.8 10.464 24.0079 9.59998 23.0399 9.59998Z" fill="white"/>
<path d="M17.8284 15.657C18.0873 15.8123 18.0873 16.1876 17.8284 16.343L15.0058 18.0365C14.7392 18.1965 14.4 18.0044 14.4 17.6935V14.3065C14.4 13.9955 14.7392 13.8035 15.0058 13.9635L17.8284 15.657Z" fill="#1B3050"/>
</svg>
